<svg width="826" height="768" viewBox="0 0 826 768" fill="none" xmlns="http://www.w3.org/2000/svg">
<g opacity="0.5">
<path opacity="0.1" d="M367.152 637.777L366.559 637.482L154.19 514.962L155.671 514.074L367.152 392.146L367.744 392.442L580.113 514.962L578.632 515.85L367.152 637.777ZM157.745 514.962L367.152 635.706L576.559 514.962L367.152 394.218L157.745 514.962Z" fill="url(#paint0_linear_3829_111541)"/>
<path opacity="0.1" d="M445.345 438.907L444.456 437.427L590.775 353.084V214.879L591.367 214.583L1012.85 -28.6804L1013.74 -27.2007L592.552 215.767V353.972L592.255 354.268L445.345 438.907Z" fill="url(#paint1_linear_3829_111541)"/>
<path opacity="0.1" d="M635.201 190.612H633.424V63.0611L633.72 62.7651L813.508 -41.1103L814.397 -39.3346L635.201 63.9489V190.612Z" fill="url(#paint2_linear_3829_111541)"/>
<path opacity="0.1" d="M473.188 454.889L472.3 453.409L615.064 370.841H863.865L1081.86 245.066H1120.07L1120.37 245.362L1274.39 334.144L1273.5 335.624L1119.48 246.842H1082.16L864.161 372.617H615.656L473.188 454.889Z" fill="url(#paint3_linear_3829_111541)"/>
<path opacity="0.1" d="M261.114 454.887L-26.191 289.16H-197.686V288.864L-306.092 226.716V125.504H-304.315V225.532L-197.093 287.384H-25.8949H-25.5987L262.003 453.407L261.114 454.887Z" fill="url(#paint4_linear_3829_111541)"/>
<path opacity="0.1" d="M295.475 435.058L3.72637 266.668V166.64L-100.829 106.563L-99.9406 105.084L5.50354 165.752V265.78L296.363 433.579L295.475 435.058Z" fill="url(#paint5_linear_3829_111541)"/>
<path opacity="0.1" d="M331.31 414.345L159.519 315.204V229.381L160.111 229.085L457.783 57.1434L458.672 58.6231L161.296 230.269V314.02L332.198 412.569L331.31 414.345Z" fill="url(#paint6_linear_3829_111541)"/>
<path opacity="0.1" d="M-593.692 795.515H-593.988H-594.284L-710.688 728.336L-709.799 726.856L-593.692 793.739H-330.378L-140.223 683.945H17.0544L233.57 559.354L234.459 560.833L17.6468 685.721H-139.631L-329.786 795.515H-593.692Z" fill="url(#paint7_linear_3829_111541)"/>
<path opacity="0.1" d="M-269.66 719.162L-270.549 717.682L-176.36 663.229H4.0204L208.985 545.148L209.873 546.628L4.61282 665.005H-175.768L-269.66 719.162Z" fill="url(#paint8_linear_3829_111541)"/>
<path opacity="0.1" d="M115.09 600.787L-35.0785 514.076H-142.3L-211.608 554.028L-212.497 552.548L-142.892 512.3H-34.7824H-34.4862L115.979 599.307L115.09 600.787Z" fill="url(#paint9_linear_3829_111541)"/>
<path opacity="0.1" d="M303.769 187.355H235.349V185.579H303.176L425.207 115.441L426.096 116.921L303.769 187.355Z" fill="url(#paint10_linear_3829_111541)"/>
<path opacity="0.1" d="M299.914 394.516H298.137V350.421L213.723 301.591V253.944H215.5V300.703L300.21 349.533L299.914 394.516Z" fill="url(#paint11_linear_3829_111541)"/>
<path opacity="0.1" d="M772.931 895.841L625.724 810.905V672.405L465.78 580.367L466.669 578.887L627.501 671.517V809.722L773.819 894.361L772.931 895.841Z" fill="url(#paint12_linear_3829_111541)"/>
<path opacity="0.1" d="M673.709 952.957L615.36 919.22V858.256L558.491 825.702V663.527L440.015 595.164L440.903 593.684L560.268 662.343V824.519L617.137 857.368V918.332L674.598 951.477L673.709 952.957Z" fill="url(#paint13_linear_3829_111541)"/>
<path opacity="0.1" d="M1128.36 714.723L1082.15 688.088H983.818L806.696 585.988H650.899V585.692L553.452 529.76L554.341 528.28L651.491 584.213H807.288L984.411 686.313H1082.75L1129.25 713.243L1128.36 714.723Z" fill="url(#paint14_linear_3829_111541)"/>
<path opacity="0.1" d="M1000.41 910.341L772.046 778.647V709.989L506.658 556.691L507.547 555.211L773.823 708.805V777.759L1001.3 908.861L1000.41 910.341Z" fill="url(#paint15_linear_3829_111541)"/>
<path opacity="0.1" d="M501.623 471.165L500.734 469.685L603.809 410.201H891.707L1099.93 290.344L1100.82 291.824L892.299 411.976H604.105L501.623 471.165Z" fill="url(#paint16_linear_3829_111541)"/>
<path opacity="0.1" d="M734.725 446.008H734.428L675.486 411.975L676.375 410.495L735.021 444.233H893.483V446.008H734.725Z" fill="url(#paint17_linear_3829_111541)"/>
<path opacity="0.1" d="M308.21 1055.65H306.433V959.172L76.8848 826.59V720.051L77.4772 719.755L294.585 594.572L295.474 596.052L78.6619 721.235V825.702L308.21 957.988V1055.65Z" fill="url(#paint18_linear_3829_111541)"/>
<path opacity="0.1" d="M326.317 613.736L325.43 612.198L165.83 704.143L166.718 705.681L326.317 613.736Z" fill="url(#paint19_linear_3829_111541)"/>
<path opacity="0.1" d="M498.364 936.975H496.587V667.076L405.952 614.991L406.841 613.215L498.364 666.188V936.975Z" fill="url(#paint20_linear_3829_111541)"/>
<path opacity="0.1" d="M1088.97 558.763L945.91 476.195H725.248H724.952L651.792 434.172H616.842L526.8 485.961L525.911 484.482L616.249 432.396H652.385H652.681L725.544 474.42H946.503L946.799 474.716L1089.86 557.283L1088.97 558.763Z" fill="url(#paint21_linear_3829_111541)"/>
<path opacity="0.1" d="M171.367 737.806H113.313V736.031H170.775L355.302 629.492L356.19 630.972L171.367 737.806Z" fill="url(#paint22_linear_3829_111541)"/>
<path opacity="0.1" d="M269.702 781.902L268.813 780.423L419.575 693.416V658.199L375.442 632.452L376.331 630.972L421.352 657.015V694.304L421.056 694.6L269.702 781.902Z" fill="url(#paint23_linear_3829_111541)"/>
<path opacity="0.1" d="M259.632 754.677L258.743 753.197L326.571 714.133H383.44V715.908H326.867L259.632 754.677Z" fill="url(#paint24_linear_3829_111541)"/>
<path opacity="0.1" d="M260.816 838.132L259.928 836.653L329.533 796.701V764.443L329.829 764.147L408.616 718.868V700.224H410.393V719.756L409.801 720.052L331.31 765.331V797.588L330.718 797.884L260.816 838.132Z" fill="url(#paint25_linear_3829_111541)"/>
<path opacity="0.1" d="M253.415 757.338C256.673 759.113 261.708 759.113 264.67 757.338C267.928 755.562 267.928 752.603 264.67 750.827C261.412 749.052 256.377 749.052 253.415 750.827C250.453 752.603 250.453 755.562 253.415 757.338Z" fill="url(#paint26_linear_3829_111541)"/>
<path opacity="0.1" d="M424.906 768.586C428.165 770.362 433.2 770.362 436.162 768.586C439.42 766.81 439.42 763.851 436.162 762.075C432.904 760.3 427.868 760.3 424.906 762.075C421.648 763.851 421.648 766.81 424.906 768.586Z" fill="url(#paint27_linear_3829_111541)"/>
<path opacity="0.1" d="M763.454 525.322C766.712 527.098 771.747 527.098 774.709 525.322C777.967 523.547 777.967 520.587 774.709 518.812C771.451 517.036 766.416 517.036 763.454 518.812C760.492 520.587 760.492 523.547 763.454 525.322Z" fill="url(#paint28_linear_3829_111541)"/>
<path opacity="0.1" d="M694.143 491.881C697.401 493.657 702.437 493.657 705.399 491.881C708.657 490.106 708.657 487.146 705.399 485.371C702.14 483.595 697.105 483.595 694.143 485.371C691.181 487.146 691.181 490.106 694.143 491.881Z" fill="url(#paint29_linear_3829_111541)"/>
<path opacity="0.1" d="M669.564 546.038C672.822 547.814 677.858 547.814 680.82 546.038C684.078 544.262 684.078 541.303 680.82 539.527C677.562 537.751 672.526 537.751 669.564 539.527C666.602 541.303 666.602 544.262 669.564 546.038Z" fill="url(#paint30_linear_3829_111541)"/>
<path opacity="0.1" d="M107.688 740.174C110.946 741.95 115.981 741.95 118.943 740.174C122.201 738.399 122.201 735.439 118.943 733.664C115.685 731.888 110.65 731.888 107.688 733.664C104.43 735.439 104.43 738.399 107.688 740.174Z" fill="url(#paint31_linear_3829_111541)"/>
<path opacity="0.1" d="M-1.01587 479.153C2.24224 480.929 7.27746 480.929 10.2394 479.153C13.4975 477.377 13.4975 474.418 10.2394 472.642C6.98127 470.867 1.94605 470.867 -1.01587 472.642C-3.97778 474.418 -3.97778 477.377 -1.01587 479.153Z" fill="url(#paint32_linear_3829_111541)"/>
<path opacity="0.1" d="M73.0354 416.711C76.2935 418.487 81.3287 418.487 84.2906 416.711C87.5488 414.935 87.5488 411.976 84.2906 410.2C81.0325 408.425 75.9973 408.425 73.0354 410.2C69.7773 412.272 69.7773 414.935 73.0354 416.711Z" fill="url(#paint33_linear_3829_111541)"/>
<path opacity="0.1" d="M208.983 257.197C212.241 258.973 217.276 258.973 220.238 257.197C223.496 255.422 223.496 252.462 220.238 250.687C216.98 248.911 211.945 248.911 208.983 250.687C205.725 252.462 205.725 255.422 208.983 257.197Z" fill="url(#paint34_linear_3829_111541)"/>
<path opacity="0.1" d="M303.765 268.147C307.023 269.923 312.059 269.923 315.021 268.147C318.279 266.371 318.279 263.412 315.021 261.636C311.762 259.861 306.727 259.861 303.765 261.636C300.803 263.412 300.803 266.371 303.765 268.147Z" fill="url(#paint35_linear_3829_111541)"/>
<path opacity="0.1" d="M314.43 210.145C317.688 211.92 322.723 211.92 325.685 210.145C328.943 208.369 328.943 205.41 325.685 203.634C322.427 201.858 317.392 201.858 314.43 203.634C311.172 205.41 311.172 208.369 314.43 210.145Z" fill="url(#paint36_linear_3829_111541)"/>
<path opacity="0.1" d="M477.628 141.486C480.886 143.261 485.921 143.261 488.883 141.486C492.141 139.71 492.141 136.751 488.883 134.975C485.625 133.199 480.59 133.199 477.628 134.975C474.666 136.751 474.666 139.71 477.628 141.486Z" fill="url(#paint37_linear_3829_111541)"/>
<path opacity="0.1" d="M452.75 61.2865C456.008 63.0621 461.044 63.0621 464.006 61.2865C467.264 59.5108 467.264 56.5514 464.006 54.7758C460.747 53.0001 455.712 53.0001 452.75 54.7758C449.492 56.5514 449.492 59.5108 452.75 61.2865Z" fill="url(#paint38_linear_3829_111541)"/>
<path opacity="0.1" d="M105.319 545.445C108.577 547.221 113.612 547.221 116.574 545.445C119.832 543.67 119.832 540.71 116.574 538.935C113.316 537.159 108.281 537.159 105.319 538.935C102.357 540.71 102.357 543.374 105.319 545.445Z" fill="url(#paint39_linear_3829_111541)"/>
<path opacity="0.1" d="M485.925 352.789C489.183 354.565 494.218 354.565 497.18 352.789C500.438 351.013 500.438 348.054 497.18 346.278C493.922 344.503 488.886 344.503 485.925 346.278C482.963 348.054 482.963 350.717 485.925 352.789Z" fill="url(#paint40_linear_3829_111541)"/>
<path opacity="0.1" d="M160.705 708.508C163.963 710.283 168.998 710.283 171.96 708.508C175.218 706.732 175.218 703.773 171.96 701.997C168.702 700.221 163.667 700.221 160.705 701.997C157.743 703.773 157.743 706.436 160.705 708.508Z" fill="url(#paint41_linear_3829_111541)"/>
<path opacity="0.1" d="M497.953 727.621L497.064 726.083L430.102 764.68L430.99 766.218L497.953 727.621Z" fill="url(#paint42_linear_3829_111541)"/>
<path opacity="0.1" d="M182.922 562.018H144.121L109.763 542.189L110.651 540.71L144.713 560.242H182.922V562.018Z" fill="url(#paint43_linear_3829_111541)"/>
<path opacity="0.1" d="M-71.8029 436.836L-72.6914 435.356L20.905 381.199H84.5862L84.8824 381.495L167.52 429.142H219.649V430.917H166.927L166.631 430.621L84.29 382.975H21.4974L-71.8029 436.836Z" fill="url(#paint44_linear_3829_111541)"/>
<path opacity="0.1" d="M172.259 506.084L78.6629 452.223H47.859L6.68834 475.898L5.7998 474.419L47.2666 450.447H78.9591H79.2552L173.148 504.605L172.259 506.084Z" fill="url(#paint45_linear_3829_111541)"/>
<path opacity="0.1" d="M147.968 490.399H146.19V453.702L78.0664 414.342L78.955 412.862L147.968 452.518V490.399Z" fill="url(#paint46_linear_3829_111541)"/>
<path opacity="0.1" d="M690.591 568.528H620.986V566.752H689.999L768.786 521.473L769.674 522.953L690.591 568.528Z" fill="url(#paint47_linear_3829_111541)"/>
<path opacity="0.1" d="M-398.208 1045.29L-399.097 1043.81L-159.774 905.607V817.712H-159.182L261.114 575.04L262.002 576.52L-157.997 818.896V906.495L-158.293 906.791L-398.208 1045.29Z" fill="url(#paint48_linear_3829_111541)"/>
<path opacity="0.1" d="M699.477 489.512L640.238 455.183H616.543L584.554 473.531H548.419V471.459H584.258L615.951 453.407H640.534H640.831L700.365 487.736L699.477 489.512Z" fill="url(#paint49_linear_3829_111541)"/>
<path opacity="0.1" d="M421.058 424.7L420.169 423.22L533.018 358.113V284.424L404.768 210.438V182.62L405.064 182.324L482.962 137.637L483.851 139.117L406.545 183.804V209.551L534.796 283.24V359.297L534.203 359.593L421.058 424.7Z" fill="url(#paint50_linear_3829_111541)"/>
<path opacity="0.1" d="M448.011 408.721H446.234V374.688L446.53 374.392L491.255 348.645L492.144 350.125L448.011 375.576V408.721Z" fill="url(#paint51_linear_3829_111541)"/>
<path opacity="0.1" d="M679.928 372.615L679.039 370.84L946.796 216.358V176.11L947.388 175.814L1058.76 111.595L1059.64 113.075L948.573 176.998V217.542H948.277L679.928 372.615Z" fill="url(#paint52_linear_3829_111541)"/>
<path opacity="0.1" d="M778.263 260.159H776.486V211.033L776.782 210.737L984.116 91.1768L985.005 92.9524L778.263 211.921V260.159Z" fill="url(#paint53_linear_3829_111541)"/>
<path opacity="0.1" d="M615.06 372.024L614.171 370.544L748.938 292.712V275.547L749.53 275.251L819.135 235.003L820.024 236.779L750.715 276.435V293.599L750.419 293.895L615.06 372.024Z" fill="url(#paint54_linear_3829_111541)"/>
<path opacity="0.1" d="M-39.8165 863.287L-40.7051 861.808L38.6742 815.937V764.443L77.4753 742.247L78.3638 743.727L40.4514 765.627V816.825L39.859 817.12L-39.8165 863.287Z" fill="url(#paint55_linear_3829_111541)"/>
<path opacity="0.1" d="M83.9887 582.733H30.6743L30.3781 582.437L-24.1211 551.068L-23.2325 549.588L31.2667 580.958H83.9887V582.733Z" fill="url(#paint56_linear_3829_111541)"/>
<path opacity="0.1" d="M-206.574 645.77H-206.87L-400.579 533.904L-399.691 532.424L-206.278 643.994H37.7839V645.77H-206.574Z" fill="url(#paint57_linear_3829_111541)"/>
<path opacity="0.1" d="M390.252 406.056H388.475V311.651L310.28 266.371L311.169 264.892L390.252 310.467V406.056Z" fill="url(#paint58_linear_3829_111541)"/>
<path opacity="0.1" d="M389.658 350.716L388.77 349.236L445.638 316.387V280.282L319.461 207.776L320.35 206.001L447.416 279.394V317.571H447.119L389.658 350.716Z" fill="url(#paint59_linear_3829_111541)"/>
<path opacity="0.1" d="M885.188 704.958L742.72 622.982H621.281V621.206H743.016H743.312L886.076 703.478L885.188 704.958Z" fill="url(#paint60_linear_3829_111541)"/>
<path opacity="0.1" d="M901.479 571.782L901.182 571.486L862.381 549.291H723.764V547.515H862.677H862.974L901.775 570.007H987.374V571.782H901.479Z" fill="url(#paint61_linear_3829_111541)"/>
<path opacity="0.1" d="M674.304 543.374L609.734 506.085H561.159V504.31H610.031H610.327L675.193 541.894L674.304 543.374Z" fill="url(#paint62_linear_3829_111541)"/>
<g filter="url(#filter0_f_3829_111541)">
<path d="M312.5 210.339C315.758 212.115 320.793 212.115 323.755 210.339C327.013 208.563 327.013 205.604 323.755 203.828C320.497 202.053 315.462 202.053 312.5 203.828C309.538 205.604 309.538 208.563 312.5 210.339Z" fill="url(#paint63_linear_3829_111541)"/>
</g>
<path opacity="0.1" d="M312.5 210.339C315.758 212.115 320.793 212.115 323.755 210.339C327.013 208.563 327.013 205.604 323.755 203.828C320.497 202.053 315.462 202.053 312.5 203.828C309.538 205.604 309.538 208.563 312.5 210.339Z" fill="url(#paint64_linear_3829_111541)"/>
<g filter="url(#filter1_f_3829_111541)">
<path d="M208.859 256.761C212.117 258.537 217.153 258.537 220.114 256.761C223.373 254.986 223.373 252.026 220.114 250.25C216.856 248.475 211.821 248.475 208.859 250.25C205.897 252.026 205.897 254.986 208.859 256.761Z" fill="url(#paint65_linear_3829_111541)"/>
</g>
<path d="M208.859 256.761C212.117 258.537 217.153 258.537 220.114 256.761C223.373 254.986 223.373 252.026 220.114 250.25C216.856 248.475 211.821 248.475 208.859 250.25C205.897 252.026 205.897 254.986 208.859 256.761Z" fill="url(#paint66_linear_3829_111541)"/>
<g opacity="0.1">
<g filter="url(#filter2_f_3829_111541)">
<path d="M-0.578373 480.235C2.67973 482.011 7.71503 482.011 10.6769 480.235C13.935 478.46 13.935 475.5 10.6769 473.725C7.41883 471.949 2.38354 471.949 -0.578373 473.725C-3.54028 475.5 -3.54028 478.46 -0.578373 480.235Z" fill="url(#paint67_linear_3829_111541)"/>
</g>
<path d="M-0.578373 480.235C2.67973 482.011 7.71503 482.011 10.6769 480.235C13.935 478.46 13.935 475.5 10.6769 473.725C7.41883 471.949 2.38354 471.949 -0.578373 473.725C-3.54028 475.5 -3.54028 478.46 -0.578373 480.235Z" fill="url(#paint68_linear_3829_111541)"/>
</g>
<g opacity="0.1">
<g filter="url(#filter3_f_3829_111541)">
<path d="M73.9119 415.46C77.17 417.236 82.2053 417.236 85.1672 415.46C88.4253 413.684 88.4253 410.725 85.1672 408.949C81.9091 407.174 76.8738 407.174 73.9119 408.949C70.95 410.725 70.95 413.684 73.9119 415.46Z" fill="url(#paint69_linear_3829_111541)"/>
</g>
<path d="M73.9119 415.46C77.17 417.236 82.2053 417.236 85.1672 415.46C88.4253 413.684 88.4253 410.725 85.1672 408.949C81.9091 407.174 76.8738 407.174 73.9119 408.949C70.95 410.725 70.95 413.684 73.9119 415.46Z" fill="url(#paint70_linear_3829_111541)"/>
</g>
<g opacity="0.1">
<g filter="url(#filter4_f_3829_111541)">
<path d="M488.474 350.685C491.732 352.461 496.768 352.461 499.73 350.685C502.988 348.909 502.988 345.95 499.73 344.174C496.472 342.399 491.436 342.399 488.474 344.174C485.512 345.95 485.512 348.909 488.474 350.685Z" fill="url(#paint71_linear_3829_111541)"/>
</g>
<path d="M488.474 350.685C491.732 352.461 496.768 352.461 499.73 350.685C502.988 348.909 502.988 345.95 499.73 344.174C496.472 342.399 491.436 342.399 488.474 344.174C485.512 345.95 485.512 348.909 488.474 350.685Z" fill="url(#paint72_linear_3829_111541)"/>
</g>
<g opacity="0.1">
<g filter="url(#filter5_f_3829_111541)">
<path d="M694.673 489.951C697.931 491.727 702.966 491.727 705.928 489.951C709.186 488.176 709.186 485.216 705.928 483.441C702.67 481.665 697.635 481.665 694.673 483.441C691.711 485.216 691.711 488.176 694.673 489.951Z" fill="url(#paint73_linear_3829_111541)"/>
</g>
<path d="M694.673 489.951C697.931 491.727 702.966 491.727 705.928 489.951C709.186 488.176 709.186 485.216 705.928 483.441C702.67 481.665 697.635 481.665 694.673 483.441C691.711 485.216 691.711 488.176 694.673 489.951Z" fill="url(#paint74_linear_3829_111541)"/>
</g>
<g opacity="0.1">
<g filter="url(#filter6_f_3829_111541)">
<path d="M761.608 524.498C764.866 526.274 769.902 526.274 772.863 524.498C776.122 522.723 776.122 519.763 772.863 517.987C769.605 516.212 764.57 516.212 761.608 517.987C758.646 519.763 758.646 522.723 761.608 524.498Z" fill="url(#paint75_linear_3829_111541)"/>
</g>
<path d="M761.608 524.498C764.866 526.274 769.902 526.274 772.863 524.498C776.122 522.723 776.122 519.763 772.863 517.987C769.605 516.212 764.57 516.212 761.608 517.987C758.646 519.763 758.646 522.723 761.608 524.498Z" fill="url(#paint76_linear_3829_111541)"/>
</g>
</g>
<defs>
<filter id="filter0_f_3829_111541" x="299.482" y="191.701" width="37.5116" height="30.7659" filterUnits="userSpaceOnUse" color-interpolation-filters="sRGB">
<feFlood flood-opacity="0" result="BackgroundImageFix"/>
<feBlend mode="normal" in="SourceGraphic" in2="BackgroundImageFix" result="shape"/>
<feGaussianBlur stdDeviation="5.39792" result="effect1_foregroundBlur_3829_111541"/>
</filter>
<filter id="filter1_f_3829_111541" x="195.842" y="238.123" width="37.5116" height="30.7659" filterUnits="userSpaceOnUse" color-interpolation-filters="sRGB">
<feFlood flood-opacity="0" result="BackgroundImageFix"/>
<feBlend mode="normal" in="SourceGraphic" in2="BackgroundImageFix" result="shape"/>
<feGaussianBlur stdDeviation="5.39792" result="effect1_foregroundBlur_3829_111541"/>
</filter>
<filter id="filter2_f_3829_111541" x="-13.5956" y="461.597" width="37.5116" height="30.7659" filterUnits="userSpaceOnUse" color-interpolation-filters="sRGB">
<feFlood flood-opacity="0" result="BackgroundImageFix"/>
<feBlend mode="normal" in="SourceGraphic" in2="BackgroundImageFix" result="shape"/>
<feGaussianBlur stdDeviation="5.39792" result="effect1_foregroundBlur_3829_111541"/>
</filter>
<filter id="filter3_f_3829_111541" x="60.8946" y="396.822" width="37.5116" height="30.7659" filterUnits="userSpaceOnUse" color-interpolation-filters="sRGB">
<feFlood flood-opacity="0" result="BackgroundImageFix"/>
<feBlend mode="normal" in="SourceGraphic" in2="BackgroundImageFix" result="shape"/>
<feGaussianBlur stdDeviation="5.39792" result="effect1_foregroundBlur_3829_111541"/>
</filter>
<filter id="filter4_f_3829_111541" x="475.457" y="332.047" width="37.5116" height="30.7659" filterUnits="userSpaceOnUse" color-interpolation-filters="sRGB">
<feFlood flood-opacity="0" result="BackgroundImageFix"/>
<feBlend mode="normal" in="SourceGraphic" in2="BackgroundImageFix" result="shape"/>
<feGaussianBlur stdDeviation="5.39792" result="effect1_foregroundBlur_3829_111541"/>
</filter>
<filter id="filter5_f_3829_111541" x="681.655" y="471.313" width="37.5116" height="30.7659" filterUnits="userSpaceOnUse" color-interpolation-filters="sRGB">
<feFlood flood-opacity="0" result="BackgroundImageFix"/>
<feBlend mode="normal" in="SourceGraphic" in2="BackgroundImageFix" result="shape"/>
<feGaussianBlur stdDeviation="5.39792" result="effect1_foregroundBlur_3829_111541"/>
</filter>
<filter id="filter6_f_3829_111541" x="748.591" y="505.86" width="37.5116" height="30.7659" filterUnits="userSpaceOnUse" color-interpolation-filters="sRGB">
<feFlood flood-opacity="0" result="BackgroundImageFix"/>
<feBlend mode="normal" in="SourceGraphic" in2="BackgroundImageFix" result="shape"/>
<feGaussianBlur stdDeviation="5.39792" result="effect1_foregroundBlur_3829_111541"/>
</filter>
<linearGradient id="paint0_linear_3829_111541" x1="154.19" y1="517.116" x2="592.44" y2="513.656" gradientUnits="userSpaceOnUse">
<stop stop-color="#0069DB"/>
<stop offset="1" stop-color="#00AAFE"/>
</linearGradient>
<linearGradient id="paint1_linear_3829_111541" x1="444.456" y1="209.215" x2="1030.23" y2="205.968" gradientUnits="userSpaceOnUse">
<stop stop-color="#0069DB"/>
<stop offset="1" stop-color="#00AAFE"/>
</linearGradient>
<linearGradient id="paint2_linear_3829_111541" x1="633.424" y1="76.7834" x2="819.644" y2="76.1212" gradientUnits="userSpaceOnUse">
<stop stop-color="#0069DB"/>
<stop offset="1" stop-color="#00AAFE"/>
</linearGradient>
<linearGradient id="paint3_linear_3829_111541" x1="472.3" y1="351.818" x2="1297.4" y2="337.457" gradientUnits="userSpaceOnUse">
<stop stop-color="#0069DB"/>
<stop offset="1" stop-color="#00AAFE"/>
</linearGradient>
<linearGradient id="paint4_linear_3829_111541" x1="-306.092" y1="293.085" x2="278.445" y2="288.495" gradientUnits="userSpaceOnUse">
<stop stop-color="#0069DB"/>
<stop offset="1" stop-color="#00AAFE"/>
</linearGradient>
<linearGradient id="paint5_linear_3829_111541" x1="-100.829" y1="272.966" x2="307.872" y2="270.726" gradientUnits="userSpaceOnUse">
<stop stop-color="#0069DB"/>
<stop offset="1" stop-color="#00AAFE"/>
</linearGradient>
<linearGradient id="paint6_linear_3829_111541" x1="159.519" y1="238.877" x2="467.344" y2="237.704" gradientUnits="userSpaceOnUse">
<stop stop-color="#0069DB"/>
<stop offset="1" stop-color="#00AAFE"/>
</linearGradient>
<linearGradient id="paint7_linear_3829_111541" x1="-710.687" y1="679.506" x2="261.551" y2="661.79" gradientUnits="userSpaceOnUse">
<stop stop-color="#0069DB"/>
<stop offset="1" stop-color="#00AAFE"/>
</linearGradient>
<linearGradient id="paint8_linear_3829_111541" x1="-270.549" y1="633.682" x2="223.73" y2="627.468" gradientUnits="userSpaceOnUse">
<stop stop-color="#0069DB"/>
<stop offset="1" stop-color="#00AAFE"/>
</linearGradient>
<linearGradient id="paint9_linear_3829_111541" x1="-212.497" y1="557.32" x2="125.41" y2="551.608" gradientUnits="userSpaceOnUse">
<stop stop-color="#0069DB"/>
<stop offset="1" stop-color="#00AAFE"/>
</linearGradient>
<linearGradient id="paint10_linear_3829_111541" x1="235.349" y1="152.029" x2="431.6" y2="149.659" gradientUnits="userSpaceOnUse">
<stop stop-color="#0069DB"/>
<stop offset="1" stop-color="#00AAFE"/>
</linearGradient>
<linearGradient id="paint11_linear_3829_111541" x1="213.723" y1="325.463" x2="302.718" y2="325.214" gradientUnits="userSpaceOnUse">
<stop stop-color="#0069DB"/>
<stop offset="1" stop-color="#00AAFE"/>
</linearGradient>
<linearGradient id="paint12_linear_3829_111541" x1="465.78" y1="740.144" x2="782.748" y2="738.742" gradientUnits="userSpaceOnUse">
<stop stop-color="#0069DB"/>
<stop offset="1" stop-color="#00AAFE"/>
</linearGradient>
<linearGradient id="paint13_linear_3829_111541" x1="440.015" y1="776.472" x2="681.4" y2="775.755" gradientUnits="userSpaceOnUse">
<stop stop-color="#0069DB"/>
<stop offset="1" stop-color="#00AAFE"/>
</linearGradient>
<linearGradient id="paint14_linear_3829_111541" x1="553.452" y1="623.137" x2="1145.83" y2="614.807" gradientUnits="userSpaceOnUse">
<stop stop-color="#0069DB"/>
<stop offset="1" stop-color="#00AAFE"/>
</linearGradient>
<linearGradient id="paint15_linear_3829_111541" x1="506.658" y1="735.892" x2="1015.62" y2="732.664" gradientUnits="userSpaceOnUse">
<stop stop-color="#0069DB"/>
<stop offset="1" stop-color="#00AAFE"/>
</linearGradient>
<linearGradient id="paint16_linear_3829_111541" x1="500.734" y1="382.341" x2="1118.08" y2="373.012" gradientUnits="userSpaceOnUse">
<stop stop-color="#0069DB"/>
<stop offset="1" stop-color="#00AAFE"/>
</linearGradient>
<linearGradient id="paint17_linear_3829_111541" x1="675.486" y1="428.563" x2="899.631" y2="422.299" gradientUnits="userSpaceOnUse">
<stop stop-color="#0069DB"/>
<stop offset="1" stop-color="#00AAFE"/>
</linearGradient>
<linearGradient id="paint18_linear_3829_111541" x1="76.8848" y1="829.155" x2="314.919" y2="828.611" gradientUnits="userSpaceOnUse">
<stop stop-color="#0069DB"/>
<stop offset="1" stop-color="#00AAFE"/>
</linearGradient>
<linearGradient id="paint19_linear_3829_111541" x1="244.23" y1="658.977" x2="245.142" y2="660.56" gradientUnits="userSpaceOnUse">
<stop stop-color="#0069DB"/>
<stop offset="1" stop-color="#00AAFE"/>
</linearGradient>
<linearGradient id="paint20_linear_3829_111541" x1="405.952" y1="777.935" x2="501.044" y2="777.811" gradientUnits="userSpaceOnUse">
<stop stop-color="#0069DB"/>
<stop offset="1" stop-color="#00AAFE"/>
</linearGradient>
<linearGradient id="paint21_linear_3829_111541" x1="525.911" y1="496.688" x2="1105.98" y2="484.901" gradientUnits="userSpaceOnUse">
<stop stop-color="#0069DB"/>
<stop offset="1" stop-color="#00AAFE"/>
</linearGradient>
<linearGradient id="paint22_linear_3829_111541" x1="113.313" y1="684.599" x2="363.209" y2="682.048" gradientUnits="userSpaceOnUse">
<stop stop-color="#0069DB"/>
<stop offset="1" stop-color="#00AAFE"/>
</linearGradient>
<linearGradient id="paint23_linear_3829_111541" x1="268.813" y1="707.761" x2="425.773" y2="707.039" gradientUnits="userSpaceOnUse">
<stop stop-color="#0069DB"/>
<stop offset="1" stop-color="#00AAFE"/>
</linearGradient>
<linearGradient id="paint24_linear_3829_111541" x1="258.743" y1="734.76" x2="387.031" y2="732.964" gradientUnits="userSpaceOnUse">
<stop stop-color="#0069DB"/>
<stop offset="1" stop-color="#00AAFE"/>
</linearGradient>
<linearGradient id="paint25_linear_3829_111541" x1="259.928" y1="770.388" x2="414.754" y2="769.619" gradientUnits="userSpaceOnUse">
<stop stop-color="#0069DB"/>
<stop offset="1" stop-color="#00AAFE"/>
</linearGradient>
<linearGradient id="paint26_linear_3829_111541" x1="251.193" y1="754.163" x2="267.574" y2="754.034" gradientUnits="userSpaceOnUse">
<stop stop-color="#0069DB"/>
<stop offset="1" stop-color="#00AAFE"/>
</linearGradient>
<linearGradient id="paint27_linear_3829_111541" x1="422.463" y1="765.411" x2="439.072" y2="765.278" gradientUnits="userSpaceOnUse">
<stop stop-color="#0069DB"/>
<stop offset="1" stop-color="#00AAFE"/>
</linearGradient>
<linearGradient id="paint28_linear_3829_111541" x1="761.232" y1="522.147" x2="777.613" y2="522.018" gradientUnits="userSpaceOnUse">
<stop stop-color="#0069DB"/>
<stop offset="1" stop-color="#00AAFE"/>
</linearGradient>
<linearGradient id="paint29_linear_3829_111541" x1="691.922" y1="488.707" x2="708.303" y2="488.577" gradientUnits="userSpaceOnUse">
<stop stop-color="#0069DB"/>
<stop offset="1" stop-color="#00AAFE"/>
</linearGradient>
<linearGradient id="paint30_linear_3829_111541" x1="667.343" y1="542.863" x2="683.724" y2="542.734" gradientUnits="userSpaceOnUse">
<stop stop-color="#0069DB"/>
<stop offset="1" stop-color="#00AAFE"/>
</linearGradient>
<linearGradient id="paint31_linear_3829_111541" x1="105.244" y1="736.999" x2="121.854" y2="736.866" gradientUnits="userSpaceOnUse">
<stop stop-color="#0069DB"/>
<stop offset="1" stop-color="#00AAFE"/>
</linearGradient>
<linearGradient id="paint32_linear_3829_111541" x1="-3.2373" y1="475.978" x2="13.1437" y2="475.849" gradientUnits="userSpaceOnUse">
<stop stop-color="#0069DB"/>
<stop offset="1" stop-color="#00AAFE"/>
</linearGradient>
<linearGradient id="paint33_linear_3829_111541" x1="70.5918" y1="413.536" x2="87.2014" y2="413.403" gradientUnits="userSpaceOnUse">
<stop stop-color="#0069DB"/>
<stop offset="1" stop-color="#00AAFE"/>
</linearGradient>
<linearGradient id="paint34_linear_3829_111541" x1="206.539" y1="254.022" x2="223.149" y2="253.889" gradientUnits="userSpaceOnUse">
<stop stop-color="#0069DB"/>
<stop offset="1" stop-color="#00AAFE"/>
</linearGradient>
<linearGradient id="paint35_linear_3829_111541" x1="301.544" y1="264.972" x2="317.925" y2="264.843" gradientUnits="userSpaceOnUse">
<stop stop-color="#0069DB"/>
<stop offset="1" stop-color="#00AAFE"/>
</linearGradient>
<linearGradient id="paint36_linear_3829_111541" x1="311.986" y1="206.97" x2="328.596" y2="206.837" gradientUnits="userSpaceOnUse">
<stop stop-color="#0069DB"/>
<stop offset="1" stop-color="#00AAFE"/>
</linearGradient>
<linearGradient id="paint37_linear_3829_111541" x1="475.406" y1="138.311" x2="491.787" y2="138.181" gradientUnits="userSpaceOnUse">
<stop stop-color="#0069DB"/>
<stop offset="1" stop-color="#00AAFE"/>
</linearGradient>
<linearGradient id="paint38_linear_3829_111541" x1="450.307" y1="58.1116" x2="466.916" y2="57.9785" gradientUnits="userSpaceOnUse">
<stop stop-color="#0069DB"/>
<stop offset="1" stop-color="#00AAFE"/>
</linearGradient>
<linearGradient id="paint39_linear_3829_111541" x1="103.098" y1="542.27" x2="119.479" y2="542.141" gradientUnits="userSpaceOnUse">
<stop stop-color="#0069DB"/>
<stop offset="1" stop-color="#00AAFE"/>
</linearGradient>
<linearGradient id="paint40_linear_3829_111541" x1="483.703" y1="349.614" x2="500.084" y2="349.485" gradientUnits="userSpaceOnUse">
<stop stop-color="#0069DB"/>
<stop offset="1" stop-color="#00AAFE"/>
</linearGradient>
<linearGradient id="paint41_linear_3829_111541" x1="158.483" y1="705.333" x2="174.864" y2="705.203" gradientUnits="userSpaceOnUse">
<stop stop-color="#0069DB"/>
<stop offset="1" stop-color="#00AAFE"/>
</linearGradient>
<linearGradient id="paint42_linear_3829_111541" x1="462.996" y1="745.72" x2="463.909" y2="747.304" gradientUnits="userSpaceOnUse">
<stop stop-color="#0069DB"/>
<stop offset="1" stop-color="#00AAFE"/>
</linearGradient>
<linearGradient id="paint43_linear_3829_111541" x1="109.763" y1="551.551" x2="185.026" y2="550.374" gradientUnits="userSpaceOnUse">
<stop stop-color="#0069DB"/>
<stop offset="1" stop-color="#00AAFE"/>
</linearGradient>
<linearGradient id="paint44_linear_3829_111541" x1="-72.6914" y1="409.506" x2="227.957" y2="402.313" gradientUnits="userSpaceOnUse">
<stop stop-color="#0069DB"/>
<stop offset="1" stop-color="#00AAFE"/>
</linearGradient>
<linearGradient id="paint45_linear_3829_111541" x1="5.79981" y1="478.754" x2="177.97" y2="476.396" gradientUnits="userSpaceOnUse">
<stop stop-color="#0069DB"/>
<stop offset="1" stop-color="#00AAFE"/>
</linearGradient>
<linearGradient id="paint46_linear_3829_111541" x1="78.0664" y1="452.311" x2="149.994" y2="452.016" gradientUnits="userSpaceOnUse">
<stop stop-color="#0069DB"/>
<stop offset="1" stop-color="#00AAFE"/>
</linearGradient>
<linearGradient id="paint47_linear_3829_111541" x1="620.986" y1="545.414" x2="773.956" y2="543.213" gradientUnits="userSpaceOnUse">
<stop stop-color="#0069DB"/>
<stop offset="1" stop-color="#00AAFE"/>
</linearGradient>
<linearGradient id="paint48_linear_3829_111541" x1="-399.097" y1="814.291" x2="281.15" y2="809.937" gradientUnits="userSpaceOnUse">
<stop stop-color="#0069DB"/>
<stop offset="1" stop-color="#00AAFE"/>
</linearGradient>
<linearGradient id="paint49_linear_3829_111541" x1="548.419" y1="471.776" x2="704.715" y2="468.781" gradientUnits="userSpaceOnUse">
<stop stop-color="#0069DB"/>
<stop offset="1" stop-color="#00AAFE"/>
</linearGradient>
<linearGradient id="paint50_linear_3829_111541" x1="404.768" y1="283.687" x2="538.567" y2="283.411" gradientUnits="userSpaceOnUse">
<stop stop-color="#0069DB"/>
<stop offset="1" stop-color="#00AAFE"/>
</linearGradient>
<linearGradient id="paint51_linear_3829_111541" x1="446.234" y1="379.21" x2="493.475" y2="379.046" gradientUnits="userSpaceOnUse">
<stop stop-color="#0069DB"/>
<stop offset="1" stop-color="#00AAFE"/>
</linearGradient>
<linearGradient id="paint52_linear_3829_111541" x1="679.039" y1="244.395" x2="1070.67" y2="241.795" gradientUnits="userSpaceOnUse">
<stop stop-color="#0069DB"/>
<stop offset="1" stop-color="#00AAFE"/>
</linearGradient>
<linearGradient id="paint53_linear_3829_111541" x1="776.486" y1="177.15" x2="991.046" y2="175.945" gradientUnits="userSpaceOnUse">
<stop stop-color="#0069DB"/>
<stop offset="1" stop-color="#00AAFE"/>
</linearGradient>
<linearGradient id="paint54_linear_3829_111541" x1="614.171" y1="304.715" x2="825.985" y2="303.266" gradientUnits="userSpaceOnUse">
<stop stop-color="#0069DB"/>
<stop offset="1" stop-color="#00AAFE"/>
</linearGradient>
<linearGradient id="paint55_linear_3829_111541" x1="-40.7051" y1="803.829" x2="81.8151" y2="803.28" gradientUnits="userSpaceOnUse">
<stop stop-color="#0069DB"/>
<stop offset="1" stop-color="#00AAFE"/>
</linearGradient>
<linearGradient id="paint56_linear_3829_111541" x1="-24.1211" y1="566.451" x2="87.1" y2="564.8" gradientUnits="userSpaceOnUse">
<stop stop-color="#0069DB"/>
<stop offset="1" stop-color="#00AAFE"/>
</linearGradient>
<linearGradient id="paint57_linear_3829_111541" x1="-400.579" y1="590.091" x2="50.3592" y2="582.151" gradientUnits="userSpaceOnUse">
<stop stop-color="#0069DB"/>
<stop offset="1" stop-color="#00AAFE"/>
</linearGradient>
<linearGradient id="paint58_linear_3829_111541" x1="310.28" y1="336.712" x2="392.571" y2="336.5" gradientUnits="userSpaceOnUse">
<stop stop-color="#0069DB"/>
<stop offset="1" stop-color="#00AAFE"/>
</linearGradient>
<linearGradient id="paint59_linear_3829_111541" x1="319.461" y1="279.628" x2="451.125" y2="279.098" gradientUnits="userSpaceOnUse">
<stop stop-color="#0069DB"/>
<stop offset="1" stop-color="#00AAFE"/>
</linearGradient>
<linearGradient id="paint60_linear_3829_111541" x1="621.281" y1="663.817" x2="893.701" y2="659.895" gradientUnits="userSpaceOnUse">
<stop stop-color="#0069DB"/>
<stop offset="1" stop-color="#00AAFE"/>
</linearGradient>
<linearGradient id="paint61_linear_3829_111541" x1="723.764" y1="559.862" x2="994.358" y2="546.478" gradientUnits="userSpaceOnUse">
<stop stop-color="#0069DB"/>
<stop offset="1" stop-color="#00AAFE"/>
</linearGradient>
<linearGradient id="paint62_linear_3829_111541" x1="561.159" y1="524.184" x2="678.48" y2="522.625" gradientUnits="userSpaceOnUse">
<stop stop-color="#0069DB"/>
<stop offset="1" stop-color="#00AAFE"/>
</linearGradient>
<linearGradient id="paint63_linear_3829_111541" x1="310.278" y1="207.164" x2="326.659" y2="207.035" gradientUnits="userSpaceOnUse">
<stop stop-color="#0069DB"/>
<stop offset="1" stop-color="#00AAFE"/>
</linearGradient>
<linearGradient id="paint64_linear_3829_111541" x1="310.278" y1="207.164" x2="326.659" y2="207.035" gradientUnits="userSpaceOnUse">
<stop stop-color="#0069DB"/>
<stop offset="1" stop-color="#00AAFE"/>
</linearGradient>
<linearGradient id="paint65_linear_3829_111541" x1="206.638" y1="253.586" x2="223.019" y2="253.457" gradientUnits="userSpaceOnUse">
<stop stop-color="#0069DB"/>
<stop offset="1" stop-color="#00AAFE"/>
</linearGradient>
<linearGradient id="paint66_linear_3829_111541" x1="206.638" y1="253.586" x2="223.019" y2="253.457" gradientUnits="userSpaceOnUse">
<stop stop-color="#0069DB"/>
<stop offset="1" stop-color="#00AAFE"/>
</linearGradient>
<linearGradient id="paint67_linear_3829_111541" x1="-2.7998" y1="477.06" x2="13.5813" y2="476.931" gradientUnits="userSpaceOnUse">
<stop stop-color="#0069DB"/>
<stop offset="1" stop-color="#00AAFE"/>
</linearGradient>
<linearGradient id="paint68_linear_3829_111541" x1="-2.7998" y1="477.06" x2="13.5813" y2="476.931" gradientUnits="userSpaceOnUse">
<stop stop-color="#0069DB"/>
<stop offset="1" stop-color="#00AAFE"/>
</linearGradient>
<linearGradient id="paint69_linear_3829_111541" x1="71.6904" y1="412.285" x2="88.0715" y2="412.156" gradientUnits="userSpaceOnUse">
<stop stop-color="#0069DB"/>
<stop offset="1" stop-color="#00AAFE"/>
</linearGradient>
<linearGradient id="paint70_linear_3829_111541" x1="71.6904" y1="412.285" x2="88.0715" y2="412.156" gradientUnits="userSpaceOnUse">
<stop stop-color="#0069DB"/>
<stop offset="1" stop-color="#00AAFE"/>
</linearGradient>
<linearGradient id="paint71_linear_3829_111541" x1="486.253" y1="347.51" x2="502.634" y2="347.381" gradientUnits="userSpaceOnUse">
<stop stop-color="#0069DB"/>
<stop offset="1" stop-color="#00AAFE"/>
</linearGradient>
<linearGradient id="paint72_linear_3829_111541" x1="486.253" y1="347.51" x2="502.634" y2="347.381" gradientUnits="userSpaceOnUse">
<stop stop-color="#0069DB"/>
<stop offset="1" stop-color="#00AAFE"/>
</linearGradient>
<linearGradient id="paint73_linear_3829_111541" x1="692.451" y1="486.777" x2="708.832" y2="486.647" gradientUnits="userSpaceOnUse">
<stop stop-color="#0069DB"/>
<stop offset="1" stop-color="#00AAFE"/>
</linearGradient>
<linearGradient id="paint74_linear_3829_111541" x1="692.451" y1="486.777" x2="708.832" y2="486.647" gradientUnits="userSpaceOnUse">
<stop stop-color="#0069DB"/>
<stop offset="1" stop-color="#00AAFE"/>
</linearGradient>
<linearGradient id="paint75_linear_3829_111541" x1="759.387" y1="521.323" x2="775.768" y2="521.194" gradientUnits="userSpaceOnUse">
<stop stop-color="#0069DB"/>
<stop offset="1" stop-color="#00AAFE"/>
</linearGradient>
<linearGradient id="paint76_linear_3829_111541" x1="759.387" y1="521.323" x2="775.768" y2="521.194" gradientUnits="userSpaceOnUse">
<stop stop-color="#0069DB"/>
<stop offset="1" stop-color="#00AAFE"/>
</linearGradient>
</defs>
</svg>
