<svg width="100" height="30" viewBox="0 0 100 30" fill="none" xmlns="http://www.w3.org/2000/svg">
<path d="M4.7202 27.63C3.80871 27.63 3.05162 27.5492 2.44879 27.3874C1.84597 27.2257 1.36461 26.9574 1.00442 26.5825C0.644236 26.2077 0.386939 25.7041 0.23253 25.072C0.0781215 24.4399 0.00106812 23.6533 0.00106812 22.7124V17.3759C0.00106812 16.4351 0.0781215 15.6485 0.23253 15.0164C0.386939 14.3843 0.644236 13.8771 1.00442 13.4948C1.36461 13.1126 1.84597 12.8442 2.44879 12.6898C3.05162 12.5354 3.80871 12.4584 4.7202 12.4584H13.2322C13.7907 12.4584 14.2795 12.5354 14.6986 12.6898C15.1176 12.8442 15.474 13.0354 15.7681 13.2632C16.062 13.491 16.2974 13.7337 16.4737 13.991C16.6502 14.2481 16.7824 14.4797 16.8706 14.6855L14.9742 16.626C14.8418 16.332 14.6288 16.0637 14.3346 15.8212C14.0406 15.5786 13.607 15.4574 13.0336 15.4574H4.74211C4.08066 15.4574 3.61759 15.597 3.35288 15.8764C3.08834 16.1557 2.95599 16.6555 2.95599 17.3759V22.7344C2.95599 23.0579 2.97804 23.3372 3.02216 23.5725C3.06628 23.8076 3.15073 24.0061 3.27583 24.1679C3.40063 24.3296 3.58087 24.4507 3.81596 24.5317C4.0512 24.6125 4.35987 24.653 4.74211 24.653H13.1439C13.732 24.653 14.1656 24.5317 14.4449 24.2891C14.7243 24.0466 14.9301 23.7783 15.0624 23.4842L16.9588 25.4027C16.8706 25.6085 16.7382 25.8401 16.5619 26.0974C16.3855 26.3546 16.1502 26.5972 15.8562 26.825C15.5622 27.053 15.2058 27.2441 14.7867 27.3984C14.3677 27.5528 13.879 27.63 13.3203 27.63H4.7202ZM33.6079 27.63L31.7115 24.1017H22.56L20.6636 27.63H17.2675L25.5811 12.4584H28.6904L37.0039 27.63H33.6079ZM27.1468 15.4354L23.7067 21.72H30.5868L27.1468 15.4354ZM51.5802 27.63L46.3318 22.6682H41.5465V27.63H38.5475V12.4584H50.9407C51.7491 12.4584 52.4292 12.543 52.9805 12.7119C53.5318 12.881 53.9764 13.1493 54.3146 13.5169C54.6527 13.8843 54.899 14.3696 55.0534 14.9723C55.2076 15.575 55.2848 16.3027 55.2848 17.1553V18.0814C55.2848 19.0078 55.193 19.7648 55.0092 20.3529C54.8254 20.9409 54.5277 21.404 54.116 21.7421C53.7045 22.0802 53.1752 22.3118 52.5284 22.4368C51.8816 22.5617 51.0877 22.6243 50.1467 22.6243L55.77 27.63H51.5802ZM52.3299 17.6625C52.3299 16.9275 52.2453 16.3799 52.0764 16.0197C51.9072 15.6596 51.4994 15.4795 50.8524 15.4795H41.5465V20.1765H50.8524C51.3817 20.1765 51.7602 20.0442 51.9882 19.7795C52.216 19.5149 52.3299 19.0519 52.3299 18.3903V17.6625ZM57.5562 27.63V12.4584H70.3243C71.2504 12.4584 72.0185 12.5392 72.6286 12.7009C73.2387 12.8627 73.7238 13.1383 74.084 13.5278C74.4442 13.9174 74.7015 14.4246 74.8558 15.0495C75.0102 15.6742 75.0874 16.4497 75.0874 17.3759V22.7124C75.0874 23.6387 75.0102 24.4176 74.8558 25.0499C74.7015 25.6821 74.4442 26.1893 74.084 26.5715C73.7238 26.9538 73.2387 27.2257 72.6286 27.3874C72.0185 27.5492 71.2504 27.63 70.3243 27.63H57.5562ZM72.1104 17.3979C72.1104 16.6483 71.978 16.1373 71.7135 15.8653C71.4488 15.5934 70.9857 15.4574 70.3243 15.4574H60.5553V24.653H70.3243C71.0004 24.653 71.4672 24.5207 71.7245 24.256C71.9817 23.9914 72.1104 23.4842 72.1104 22.7344V17.3979ZM77.6674 27.63V12.4584H92.2437V15.4574H80.6444V18.8092H91.9128V21.257H80.6444V24.653H92.2437V27.63H77.6674Z" fill="#C54031"/>
<path d="M44.2912 8.3694C44.7303 8.63849 45.1037 8.82523 45.4115 8.93446C45.7177 9.04218 46.0171 9.09597 46.3099 9.09597C46.6042 9.09597 46.8414 9.0304 47.0213 8.90092C47.1996 8.77129 47.2887 8.60479 47.2887 8.40128C47.2887 8.11029 46.9708 7.78063 46.3333 7.41727C46.2307 7.35834 46.1517 7.31136 46.0962 7.27933L45.6134 7.00677C45.1441 6.74101 44.7958 6.4399 44.5706 6.10525C44.3435 5.77044 44.2308 5.39031 44.2308 4.96637C44.2308 4.39119 44.4477 3.92026 44.8816 3.55176C45.3141 3.18342 45.8741 3 46.5603 3C46.8145 3 47.0885 3.03037 47.383 3.08929C47.679 3.14806 48.007 3.24068 48.3687 3.36502V5.03874C48.0239 4.82344 47.6976 4.65695 47.388 4.53925C47.0786 4.42141 46.8161 4.36263 46.599 4.36263C46.3585 4.36263 46.1701 4.41476 46.0323 4.51735C45.8944 4.61993 45.8253 4.7612 45.8253 4.93781C45.8253 5.06231 45.8657 5.17834 45.9482 5.28606C46.0305 5.39545 46.1533 5.4929 46.3182 5.58204L47.1559 6.04466C47.8573 6.43325 48.3283 6.79147 48.5705 7.11948C48.8127 7.4493 48.9339 7.83774 48.9339 8.28857C48.9339 8.98492 48.6967 9.54847 48.2223 9.9774C47.7464 10.4063 47.1172 10.62 46.3316 10.62C46.0659 10.62 45.7765 10.5914 45.4636 10.536C45.1525 10.4804 44.8076 10.3929 44.4343 10.2752L44.2912 8.3694Z" fill="#003087"/>
<path d="M27.6081 10.388L29.0916 3.01025H29.2144L31.9108 7.66306L34.4542 3.01025H34.582L36.0758 10.388H34.4542L33.8487 7.12475L31.9311 10.6505H31.8167L29.7577 7.07595L29.1303 10.388H27.6081Z" fill="#003087"/>
<path d="M24.8229 10.3879V3.24231H26.5285V10.3879H24.8229Z" fill="#003087"/>
<path d="M16.7974 10.3879L19.3643 6.69218L16.8327 3.24231H18.9151L20.3886 5.28271L21.773 3.24231H23.63L21.329 6.54427L24.1448 10.3879H22.0454L20.3096 7.96386L18.6645 10.3879H16.7974Z" fill="#003087"/>
<path d="M8.99066 10.3879L12.6357 3.02026H12.7433L16.3077 10.3879H14.5231L14.0706 9.3483H11.1707L10.708 10.3879H8.99066ZM11.6652 8.11696H13.5424L12.6155 5.87985L11.6652 8.11696Z" fill="#003087"/>
<path d="M0 10.388L1.48365 3.01025H1.60649L4.3029 7.66306L6.84611 3.01025H6.97408L8.4677 10.388H6.84611L6.24056 7.12475L4.32299 10.6505H4.20862L2.14979 7.07595L1.52233 10.388H0Z" fill="#003087"/>
<path d="M38.7487 5.38185V7.15755C38.7487 7.78576 38.8652 8.25579 39.0954 8.56808C39.3258 8.88067 39.675 9.0372 40.1441 9.0372C40.5948 9.0372 40.9391 8.89064 41.1762 8.59996C41.4131 8.30942 41.4812 7.88623 41.4761 7.33009L41.4576 5.37611L43.1261 5.37415L43.1833 7.17342C43.2161 8.19973 43.0801 9.25703 42.4107 9.85472C41.7018 10.4876 41.002 10.5952 40.0654 10.5952C39.1188 10.5952 38.3829 10.3108 37.8574 9.7408C37.3326 9.17166 37.0463 8.32816 37.0463 7.29791V5.38563L38.7487 5.38185Z" fill="#003087"/>
<path fill-rule="evenodd" clip-rule="evenodd" d="M37.043 3.25122H38.7313V4.90575H37.043V3.25122Z" fill="#C54031"/>
<path fill-rule="evenodd" clip-rule="evenodd" d="M41.4424 3.25122H43.1305V4.90575H41.4424V3.25122Z" fill="#C54031"/>
<path d="M94.1765 10.8219V8.16357H95.3546C95.5917 8.16357 95.7716 8.18775 95.8949 8.23534C96.018 8.28308 96.1164 8.36724 96.19 8.4878C96.2635 8.60852 96.3001 8.74223 96.3001 8.88818C96.3001 9.07688 96.2388 9.23597 96.117 9.3653C95.9951 9.49463 95.807 9.57622 95.5519 9.61157C95.6455 9.65614 95.716 9.70071 95.7642 9.74392C95.8669 9.83805 95.9641 9.9562 96.055 10.0979L96.5149 10.8219H96.0754L95.724 10.2688C95.6219 10.1085 95.5371 9.98656 95.471 9.90181C95.4042 9.81705 95.3446 9.75827 95.2921 9.72413C95.2402 9.69074 95.1863 9.66717 95.1318 9.65357C95.0922 9.64557 95.0274 9.64118 94.9363 9.64118H94.5291V10.8219H94.1765ZM94.5291 9.3369H95.2841C95.445 9.3369 95.5699 9.32013 95.6603 9.28659C95.7506 9.25395 95.8194 9.20062 95.8657 9.12704C95.9127 9.05407 95.9363 8.97475 95.9363 8.88878C95.9363 8.76323 95.8911 8.65928 95.8002 8.57815C95.7092 8.49717 95.5657 8.45683 95.3694 8.45683H94.5291V9.3369Z" fill="black"/>
<path d="M95.0875 6.60522C95.8848 6.60522 96.6068 6.9284 97.1292 7.45085C97.6517 7.97345 97.975 8.69533 97.975 9.49276C97.975 10.29 97.6517 11.0119 97.1292 11.5345C96.6068 12.057 95.8848 12.3803 95.0875 12.3803C94.2902 12.3803 93.5682 12.057 93.0456 11.5345C92.5231 11.0119 92.2 10.29 92.2 9.49276C92.2 8.69533 92.5231 7.97345 93.0456 7.45085C93.5682 6.9284 94.2902 6.60522 95.0875 6.60522ZM96.9297 7.65043C96.4583 7.17904 95.8068 6.88745 95.0875 6.88745C94.368 6.88745 93.7167 7.17904 93.2452 7.65043C92.7738 8.12181 92.4822 8.77329 92.4822 9.49276C92.4822 10.2121 92.7738 10.8636 93.2452 11.3349C93.7167 11.8063 94.368 12.0981 95.0875 12.0981C95.8068 12.0981 96.4583 11.8063 96.9297 11.3349C97.401 10.8636 97.6928 10.2121 97.6928 9.49276C97.6928 8.77329 97.401 8.12181 96.9297 7.65043Z" fill="black"/>
</svg>
