<svg width="466" height="42" viewBox="0 0 466 42" fill="none" xmlns="http://www.w3.org/2000/svg">
<path d="M6.34091 27L0.59375 6.63636H4.56108L8.23011 21.6009H8.41903L12.3366 6.63636H15.946L19.8736 21.6108H20.0526L23.7216 6.63636H27.6889L21.9418 27H18.3026L14.2259 12.7116H14.0668L9.98011 27H6.34091ZM35.2905 27.2983C33.7592 27.2983 32.4368 26.9801 31.3232 26.3438C30.2161 25.7008 29.3643 24.7926 28.7678 23.6193C28.1712 22.4394 27.8729 21.0507 27.8729 19.4531C27.8729 17.8821 28.1712 16.5033 28.7678 15.3168C29.371 14.1236 30.2128 13.1955 31.2933 12.5327C32.3738 11.8632 33.6432 11.5284 35.1016 11.5284C36.0429 11.5284 36.9311 11.6809 37.7663 11.9858C38.6082 12.2841 39.3506 12.7481 39.9936 13.3778C40.6432 14.0076 41.1536 14.8097 41.5249 15.7841C41.8961 16.7519 42.0817 17.9053 42.0817 19.2443V20.348H29.5632V17.9219H38.6314C38.6248 17.2325 38.4756 16.6193 38.1839 16.0824C37.8923 15.5388 37.4846 15.1113 36.9609 14.7997C36.4439 14.4882 35.8407 14.3324 35.1513 14.3324C34.4155 14.3324 33.7692 14.5114 33.2124 14.8693C32.6555 15.2206 32.2214 15.6847 31.9098 16.2614C31.6049 16.8314 31.4491 17.4579 31.4425 18.1406V20.2585C31.4425 21.1468 31.6049 21.9091 31.9297 22.5455C32.2545 23.1752 32.7086 23.6591 33.2919 23.9972C33.8752 24.3286 34.558 24.4943 35.3402 24.4943C35.8639 24.4943 36.3378 24.4214 36.7621 24.2756C37.1863 24.1231 37.5542 23.901 37.8658 23.6094C38.1773 23.3177 38.4126 22.9564 38.5717 22.5256L41.9325 22.9034C41.7204 23.7917 41.3161 24.5672 40.7195 25.2301C40.1295 25.8864 39.3738 26.3968 38.4524 26.7614C37.531 27.1193 36.477 27.2983 35.2905 27.2983ZM48.7262 6.63636V27H45.1268V6.63636H48.7262ZM59.0895 27.2983C57.5649 27.2983 56.2557 26.9635 55.1619 26.294C54.0748 25.6245 53.2363 24.6998 52.6463 23.5199C52.063 22.3333 51.7713 20.9678 51.7713 19.4233C51.7713 17.8722 52.0696 16.5033 52.6662 15.3168C53.2628 14.1236 54.1046 13.1955 55.1918 12.5327C56.2855 11.8632 57.5781 11.5284 59.0696 11.5284C60.3092 11.5284 61.4063 11.7571 62.3608 12.2145C63.322 12.6652 64.0876 13.3049 64.6577 14.1335C65.2277 14.9555 65.5526 15.9167 65.6321 17.017H62.1918C62.0526 16.2812 61.7211 15.6681 61.1974 15.1776C60.6804 14.6804 59.9877 14.4318 59.1193 14.4318C58.3835 14.4318 57.7372 14.6307 57.1804 15.0284C56.6236 15.4195 56.1894 15.983 55.8778 16.7188C55.5729 17.4545 55.4205 18.3362 55.4205 19.3636C55.4205 20.4044 55.5729 21.2992 55.8778 22.0483C56.1828 22.7907 56.6103 23.3641 57.1605 23.7685C57.7173 24.1662 58.3703 24.3651 59.1193 24.3651C59.6496 24.3651 60.1236 24.2656 60.5412 24.0668C60.9654 23.8613 61.3201 23.5663 61.6051 23.1818C61.8902 22.7973 62.0857 22.33 62.1918 21.7798H65.6321C65.5459 22.8603 65.2277 23.8182 64.6776 24.6534C64.1274 25.482 63.3783 26.1316 62.4304 26.6023C61.4825 27.0663 60.3688 27.2983 59.0895 27.2983ZM75.2496 27.2983C73.7582 27.2983 72.4656 26.9702 71.3718 26.3139C70.2781 25.6577 69.4296 24.7396 68.8263 23.5597C68.2298 22.3797 67.9315 21.0009 67.9315 19.4233C67.9315 17.8456 68.2298 16.4635 68.8263 15.277C69.4296 14.0904 70.2781 13.169 71.3718 12.5128C72.4656 11.8565 73.7582 11.5284 75.2496 11.5284C76.7411 11.5284 78.0337 11.8565 79.1275 12.5128C80.2212 13.169 81.0664 14.0904 81.663 15.277C82.2662 16.4635 82.5678 17.8456 82.5678 19.4233C82.5678 21.0009 82.2662 22.3797 81.663 23.5597C81.0664 24.7396 80.2212 25.6577 79.1275 26.3139C78.0337 26.9702 76.7411 27.2983 75.2496 27.2983ZM75.2695 24.4148C76.0782 24.4148 76.7544 24.1927 77.2979 23.7486C77.8415 23.2978 78.2459 22.6946 78.511 21.9389C78.7828 21.1832 78.9187 20.3414 78.9187 19.4134C78.9187 18.4787 78.7828 17.6335 78.511 16.8778C78.2459 16.1155 77.8415 15.509 77.2979 15.0582C76.7544 14.6075 76.0782 14.3821 75.2695 14.3821C74.4409 14.3821 73.7515 14.6075 73.2013 15.0582C72.6578 15.509 72.2501 16.1155 71.9783 16.8778C71.7132 17.6335 71.5806 18.4787 71.5806 19.4134C71.5806 20.3414 71.7132 21.1832 71.9783 21.9389C72.2501 22.6946 72.6578 23.2978 73.2013 23.7486C73.7515 24.1927 74.4409 24.4148 75.2695 24.4148ZM85.6229 27V11.7273H89.0632V14.3224H89.2422C89.5604 13.4474 90.0874 12.7647 90.8232 12.2741C91.5589 11.777 92.4373 11.5284 93.4581 11.5284C94.4922 11.5284 95.3639 11.7803 96.0732 12.2841C96.7891 12.7812 97.2929 13.4607 97.5845 14.3224H97.7436C98.0817 13.474 98.6518 12.7978 99.4538 12.294C100.263 11.7836 101.22 11.5284 102.327 11.5284C103.733 11.5284 104.879 11.9725 105.768 12.8608C106.656 13.7491 107.1 15.045 107.1 16.7486V27H103.491V17.3054C103.491 16.3575 103.239 15.6648 102.735 15.2273C102.231 14.7831 101.615 14.5611 100.886 14.5611C100.017 14.5611 99.3378 14.8329 98.8473 15.3764C98.3634 15.9134 98.1214 16.6127 98.1214 17.4744V27H94.5916V17.1562C94.5916 16.3674 94.353 15.7377 93.8757 15.267C93.4051 14.7964 92.7886 14.5611 92.0263 14.5611C91.5092 14.5611 91.0386 14.6937 90.6143 14.9588C90.1901 15.2173 89.852 15.5852 89.6001 16.0625C89.3482 16.5331 89.2223 17.0833 89.2223 17.7131V27H85.6229ZM117.513 27.2983C115.982 27.2983 114.659 26.9801 113.546 26.3438C112.439 25.7008 111.587 24.7926 110.99 23.6193C110.394 22.4394 110.096 21.0507 110.096 19.4531C110.096 17.8821 110.394 16.5033 110.99 15.3168C111.594 14.1236 112.435 13.1955 113.516 12.5327C114.596 11.8632 115.866 11.5284 117.324 11.5284C118.266 11.5284 119.154 11.6809 119.989 11.9858C120.831 12.2841 121.573 12.7481 122.216 13.3778C122.866 14.0076 123.376 14.8097 123.748 15.7841C124.119 16.7519 124.304 17.9053 124.304 19.2443V20.348H111.786V17.9219H120.854C120.847 17.2325 120.698 16.6193 120.407 16.0824C120.115 15.5388 119.707 15.1113 119.184 14.7997C118.667 14.4882 118.063 14.3324 117.374 14.3324C116.638 14.3324 115.992 14.5114 115.435 14.8693C114.878 15.2206 114.444 15.6847 114.132 16.2614C113.828 16.8314 113.672 17.4579 113.665 18.1406V20.2585C113.665 21.1468 113.828 21.9091 114.152 22.5455C114.477 23.1752 114.931 23.6591 115.515 23.9972C116.098 24.3286 116.781 24.4943 117.563 24.4943C118.087 24.4943 118.56 24.4214 118.985 24.2756C119.409 24.1231 119.777 23.901 120.088 23.6094C120.4 23.3177 120.635 22.9564 120.794 22.5256L124.155 22.9034C123.943 23.7917 123.539 24.5672 122.942 25.2301C122.352 25.8864 121.596 26.3968 120.675 26.7614C119.754 27.1193 118.7 27.2983 117.513 27.2983ZM141.921 11.7273V14.5114H133.141V11.7273H141.921ZM135.309 8.06818H138.908V22.4062C138.908 22.8902 138.981 23.2614 139.127 23.5199C139.28 23.7718 139.478 23.9441 139.724 24.0369C139.969 24.1297 140.241 24.1761 140.539 24.1761C140.764 24.1761 140.97 24.1596 141.156 24.1264C141.348 24.0933 141.494 24.0634 141.593 24.0369L142.2 26.8509C142.007 26.9171 141.732 26.9901 141.374 27.0696C141.023 27.1491 140.592 27.1955 140.082 27.2088C139.18 27.2353 138.368 27.0994 137.646 26.8011C136.923 26.4962 136.35 26.0256 135.925 25.3892C135.508 24.7528 135.302 23.9574 135.309 23.0028V8.06818ZM151.429 27.2983C149.938 27.2983 148.645 26.9702 147.551 26.3139C146.458 25.6577 145.609 24.7396 145.006 23.5597C144.409 22.3797 144.111 21.0009 144.111 19.4233C144.111 17.8456 144.409 16.4635 145.006 15.277C145.609 14.0904 146.458 13.169 147.551 12.5128C148.645 11.8565 149.938 11.5284 151.429 11.5284C152.921 11.5284 154.213 11.8565 155.307 12.5128C156.401 13.169 157.246 14.0904 157.843 15.277C158.446 16.4635 158.748 17.8456 158.748 19.4233C158.748 21.0009 158.446 22.3797 157.843 23.5597C157.246 24.7396 156.401 25.6577 155.307 26.3139C154.213 26.9702 152.921 27.2983 151.429 27.2983ZM151.449 24.4148C152.258 24.4148 152.934 24.1927 153.478 23.7486C154.021 23.2978 154.426 22.6946 154.691 21.9389C154.962 21.1832 155.098 20.3414 155.098 19.4134C155.098 18.4787 154.962 17.6335 154.691 16.8778C154.426 16.1155 154.021 15.509 153.478 15.0582C152.934 14.6075 152.258 14.3821 151.449 14.3821C150.621 14.3821 149.931 14.6075 149.381 15.0582C148.837 15.509 148.43 16.1155 148.158 16.8778C147.893 17.6335 147.76 18.4787 147.76 19.4134C147.76 20.3414 147.893 21.1832 148.158 21.9389C148.43 22.6946 148.837 23.2978 149.381 23.7486C149.931 24.1927 150.621 24.4148 151.449 24.4148Z" fill="black"/>
<path d="M294.062 22.8413C295.309 23.6076 296.368 24.1392 297.242 24.4505C298.111 24.7571 298.961 24.9104 299.791 24.9104C300.627 24.9104 301.3 24.7236 301.811 24.3548C302.317 23.986 302.57 23.5118 302.57 22.9323C302.57 22.1036 301.667 21.1649 299.858 20.1303C299.567 19.9627 299.342 19.8286 299.185 19.7375L297.815 18.9616C296.483 18.2048 295.495 17.3474 294.855 16.3943C294.211 15.4412 293.891 14.3588 293.891 13.1517C293.891 11.5136 294.506 10.1727 295.738 9.12362C296.965 8.07473 298.555 7.55261 300.502 7.55261C301.223 7.55261 302.001 7.63897 302.837 7.80648C303.677 7.97415 304.608 8.23761 305.634 8.59198V13.3577C304.656 12.7446 303.73 12.2704 302.851 11.9352C301.973 11.5999 301.228 11.4323 300.612 11.4323C299.93 11.4323 299.395 11.5807 299.003 11.873C298.612 12.1651 298.416 12.5674 298.416 13.0704C298.416 13.4248 298.531 13.7553 298.765 14.0619C298.999 14.3731 299.347 14.6509 299.815 14.9048L302.192 16.2219C304.183 17.3284 305.52 18.3485 306.207 19.2825C306.895 20.2212 307.238 21.3277 307.238 22.6112C307.238 24.5942 306.565 26.1987 305.219 27.42C303.868 28.6414 302.083 29.2496 299.853 29.2496C299.099 29.2496 298.278 29.1682 297.39 29.0102C296.507 28.8521 295.528 28.603 294.468 28.2678L294.062 22.841V22.8413Z" fill="#003087"/>
<path d="M246.714 28.5888L250.924 7.58148H251.273L258.926 20.8296L266.144 7.58148H266.507L270.746 28.5888H266.144L264.425 19.2969L258.983 29.3359H258.658L252.815 19.158L251.034 28.5888H246.714Z" fill="#003087"/>
<path d="M238.81 28.5889V8.24249H243.65V28.5889H238.81Z" fill="#003087"/>
<path d="M216.033 28.5889L223.318 18.066L216.133 8.24249H222.044L226.226 14.0524L230.154 8.24249H235.425L228.894 17.6446L236.886 28.5889H230.928L226.001 21.6869L221.332 28.5889H216.033Z" fill="#003087"/>
<path d="M193.878 28.5887L204.223 7.61011H204.529L214.645 28.5887H209.579L208.295 25.6288H200.065L198.752 28.5887H193.878H193.878ZM201.469 22.1227H206.796L204.166 15.7525L201.469 22.1227Z" fill="#003087"/>
<path d="M168.361 28.5888L172.572 7.58148H172.92L180.573 20.8296L187.791 7.58148H188.154L192.393 28.5888H187.791L186.073 19.2969L180.63 29.3359H180.306L174.462 19.158L172.682 28.5888H168.361Z" fill="#003087"/>
<path d="M278.333 14.3346V19.3908C278.333 21.1797 278.663 22.5181 279.317 23.4073C279.971 24.2974 280.962 24.743 282.293 24.743C283.572 24.743 284.549 24.3257 285.222 23.4979C285.894 22.6707 286.088 21.4657 286.073 19.8821L286.021 14.3183L290.756 14.3127L290.919 19.4361C291.011 22.3584 290.625 25.3688 288.726 27.0705C286.714 28.8727 284.727 29.1792 282.07 29.1792C279.383 29.1792 277.295 28.3695 275.803 26.7465C274.314 25.1258 273.501 22.724 273.501 19.7904V14.3454L278.333 14.3346Z" fill="#003087"/>
<path d="M278.283 8.26788H273.491V12.9788H278.283V8.26788Z" fill="#C54031"/>
<path d="M290.769 8.26788H285.978V12.9788H290.769V8.26788Z" fill="#C54031"/>
<path d="M318.374 27V6.63636H331.618V9.72869H322.063V15.2571H330.932V18.3494H322.063V23.9077H331.698V27H318.374ZM341.884 27.2983C340.36 27.2983 339.051 26.9635 337.957 26.294C336.87 25.6245 336.031 24.6998 335.441 23.5199C334.858 22.3333 334.566 20.9678 334.566 19.4233C334.566 17.8722 334.865 16.5033 335.461 15.3168C336.058 14.1236 336.9 13.1955 337.987 12.5327C339.08 11.8632 340.373 11.5284 341.865 11.5284C343.104 11.5284 344.201 11.7571 345.156 12.2145C346.117 12.6652 346.883 13.3049 347.453 14.1335C348.023 14.9555 348.347 15.9167 348.427 17.017H344.987C344.847 16.2812 344.516 15.6681 343.992 15.1776C343.475 14.6804 342.783 14.4318 341.914 14.4318C341.178 14.4318 340.532 14.6307 339.975 15.0284C339.419 15.4195 338.984 15.983 338.673 16.7188C338.368 17.4545 338.215 18.3362 338.215 19.3636C338.215 20.4044 338.368 21.2992 338.673 22.0483C338.978 22.7907 339.405 23.3641 339.955 23.7685C340.512 24.1662 341.165 24.3651 341.914 24.3651C342.445 24.3651 342.919 24.2656 343.336 24.0668C343.76 23.8613 344.115 23.5663 344.4 23.1818C344.685 22.7973 344.881 22.33 344.987 21.7798H348.427C348.341 22.8603 348.023 23.8182 347.472 24.6534C346.922 25.482 346.173 26.1316 345.225 26.6023C344.277 27.0663 343.164 27.2983 341.884 27.2983ZM358.045 27.2983C356.553 27.2983 355.26 26.9702 354.167 26.3139C353.073 25.6577 352.224 24.7396 351.621 23.5597C351.025 22.3797 350.726 21.0009 350.726 19.4233C350.726 17.8456 351.025 16.4635 351.621 15.277C352.224 14.0904 353.073 13.169 354.167 12.5128C355.26 11.8565 356.553 11.5284 358.045 11.5284C359.536 11.5284 360.829 11.8565 361.922 12.5128C363.016 13.169 363.861 14.0904 364.458 15.277C365.061 16.4635 365.363 17.8456 365.363 19.4233C365.363 21.0009 365.061 22.3797 364.458 23.5597C363.861 24.7396 363.016 25.6577 361.922 26.3139C360.829 26.9702 359.536 27.2983 358.045 27.2983ZM358.064 24.4148C358.873 24.4148 359.549 24.1927 360.093 23.7486C360.636 23.2978 361.041 22.6946 361.306 21.9389C361.578 21.1832 361.714 20.3414 361.714 19.4134C361.714 18.4787 361.578 17.6335 361.306 16.8778C361.041 16.1155 360.636 15.509 360.093 15.0582C359.549 14.6075 358.873 14.3821 358.064 14.3821C357.236 14.3821 356.546 14.6075 355.996 15.0582C355.453 15.509 355.045 16.1155 354.773 16.8778C354.508 17.6335 354.376 18.4787 354.376 19.4134C354.376 20.3414 354.508 21.1832 354.773 21.9389C355.045 22.6946 355.453 23.2978 355.996 23.7486C356.546 24.1927 357.236 24.4148 358.064 24.4148ZM380.489 15.7642L377.208 16.1222C377.115 15.7907 376.952 15.4792 376.72 15.1875C376.495 14.8958 376.19 14.6605 375.806 14.4815C375.421 14.3026 374.95 14.2131 374.394 14.2131C373.645 14.2131 373.015 14.3755 372.504 14.7003C372.001 15.0251 371.752 15.446 371.759 15.9631C371.752 16.4072 371.914 16.7685 372.246 17.0469C372.584 17.3253 373.141 17.554 373.916 17.733L376.521 18.2898C377.967 18.6013 379.04 19.0952 379.743 19.7713C380.452 20.4474 380.81 21.3324 380.817 22.4261C380.81 23.3873 380.529 24.2358 379.972 24.9716C379.422 25.7008 378.656 26.2708 377.675 26.6818C376.694 27.0928 375.567 27.2983 374.294 27.2983C372.425 27.2983 370.92 26.9072 369.78 26.125C368.64 25.3362 367.96 24.2391 367.742 22.8338L371.252 22.4957C371.411 23.1851 371.749 23.7055 372.266 24.0568C372.783 24.4081 373.456 24.5838 374.284 24.5838C375.139 24.5838 375.825 24.4081 376.343 24.0568C376.866 23.7055 377.128 23.2713 377.128 22.7543C377.128 22.3168 376.959 21.9555 376.621 21.6705C376.289 21.3854 375.772 21.1667 375.07 21.0142L372.465 20.4673C371 20.1624 369.916 19.6487 369.213 18.9261C368.511 18.197 368.163 17.2756 368.169 16.1619C368.163 15.2206 368.418 14.4053 368.935 13.7159C369.459 13.0199 370.184 12.483 371.112 12.1051C372.047 11.7206 373.124 11.5284 374.344 11.5284C376.134 11.5284 377.542 11.9096 378.57 12.6719C379.604 13.4342 380.244 14.465 380.489 15.7642ZM386.022 32.7273C385.532 32.7273 385.078 32.6875 384.66 32.608C384.249 32.535 383.921 32.4489 383.676 32.3494L384.511 29.5455C385.035 29.6979 385.502 29.7708 385.913 29.7642C386.324 29.7576 386.685 29.6283 386.997 29.3764C387.315 29.1312 387.583 28.7202 387.802 28.1435L388.11 27.3182L382.572 11.7273H386.39L389.91 23.2614H390.069L393.599 11.7273H397.427L391.312 28.8494C391.027 29.6581 390.649 30.3509 390.178 30.9276C389.708 31.5109 389.131 31.955 388.448 32.2599C387.772 32.5715 386.963 32.7273 386.022 32.7273ZM411.989 15.7642L408.708 16.1222C408.615 15.7907 408.452 15.4792 408.22 15.1875C407.995 14.8958 407.69 14.6605 407.306 14.4815C406.921 14.3026 406.45 14.2131 405.894 14.2131C405.145 14.2131 404.515 14.3755 404.004 14.7003C403.501 15.0251 403.252 15.446 403.259 15.9631C403.252 16.4072 403.414 16.7685 403.746 17.0469C404.084 17.3253 404.641 17.554 405.416 17.733L408.021 18.2898C409.467 18.6013 410.54 19.0952 411.243 19.7713C411.952 20.4474 412.31 21.3324 412.317 22.4261C412.31 23.3873 412.029 24.2358 411.472 24.9716C410.922 25.7008 410.156 26.2708 409.175 26.6818C408.194 27.0928 407.067 27.2983 405.794 27.2983C403.925 27.2983 402.42 26.9072 401.28 26.125C400.14 25.3362 399.46 24.2391 399.242 22.8338L402.752 22.4957C402.911 23.1851 403.249 23.7055 403.766 24.0568C404.283 24.4081 404.956 24.5838 405.784 24.5838C406.639 24.5838 407.325 24.4081 407.843 24.0568C408.366 23.7055 408.628 23.2713 408.628 22.7543C408.628 22.3168 408.459 21.9555 408.121 21.6705C407.789 21.3854 407.272 21.1667 406.57 21.0142L403.965 20.4673C402.5 20.1624 401.416 19.6487 400.713 18.9261C400.011 18.197 399.663 17.2756 399.669 16.1619C399.663 15.2206 399.918 14.4053 400.435 13.7159C400.959 13.0199 401.684 12.483 402.612 12.1051C403.547 11.7206 404.624 11.5284 405.844 11.5284C407.634 11.5284 409.042 11.9096 410.07 12.6719C411.104 13.4342 411.744 14.465 411.989 15.7642ZM422.911 11.7273V14.5114H414.132V11.7273H422.911ZM416.299 8.06818H419.899V22.4062C419.899 22.8902 419.972 23.2614 420.117 23.5199C420.27 23.7718 420.469 23.9441 420.714 24.0369C420.959 24.1297 421.231 24.1761 421.529 24.1761C421.755 24.1761 421.96 24.1596 422.146 24.1264C422.338 24.0933 422.484 24.0634 422.583 24.0369L423.19 26.8509C422.998 26.9171 422.722 26.9901 422.365 27.0696C422.013 27.1491 421.582 27.1955 421.072 27.2088C420.17 27.2353 419.358 27.0994 418.636 26.8011C417.913 26.4962 417.34 26.0256 416.916 25.3892C416.498 24.7528 416.293 23.9574 416.299 23.0028V8.06818ZM432.519 27.2983C430.988 27.2983 429.665 26.9801 428.552 26.3438C427.445 25.7008 426.593 24.7926 425.996 23.6193C425.4 22.4394 425.101 21.0507 425.101 19.4531C425.101 17.8821 425.4 16.5033 425.996 15.3168C426.599 14.1236 427.441 13.1955 428.522 12.5327C429.602 11.8632 430.872 11.5284 432.33 11.5284C433.271 11.5284 434.16 11.6809 434.995 11.9858C435.837 12.2841 436.579 12.7481 437.222 13.3778C437.872 14.0076 438.382 14.8097 438.753 15.7841C439.125 16.7519 439.31 17.9053 439.31 19.2443V20.348H426.792V17.9219H435.86C435.853 17.2325 435.704 16.6193 435.412 16.0824C435.121 15.5388 434.713 15.1113 434.189 14.7997C433.672 14.4882 433.069 14.3324 432.38 14.3324C431.644 14.3324 430.998 14.5114 430.441 14.8693C429.884 15.2206 429.45 15.6847 429.138 16.2614C428.833 16.8314 428.678 17.4579 428.671 18.1406V20.2585C428.671 21.1468 428.833 21.9091 429.158 22.5455C429.483 23.1752 429.937 23.6591 430.52 23.9972C431.104 24.3286 431.787 24.4943 432.569 24.4943C433.092 24.4943 433.566 24.4214 433.991 24.2756C434.415 24.1231 434.783 23.901 435.094 23.6094C435.406 23.3177 435.641 22.9564 435.8 22.5256L439.161 22.9034C438.949 23.7917 438.545 24.5672 437.948 25.2301C437.358 25.8864 436.602 26.3968 435.681 26.7614C434.76 27.1193 433.706 27.2983 432.519 27.2983ZM442.355 27V11.7273H445.796V14.3224H445.975C446.293 13.4474 446.82 12.7647 447.556 12.2741C448.291 11.777 449.17 11.5284 450.191 11.5284C451.225 11.5284 452.096 11.7803 452.806 12.2841C453.521 12.7812 454.025 13.4607 454.317 14.3224H454.476C454.814 13.474 455.384 12.7978 456.186 12.294C456.995 11.7836 457.953 11.5284 459.06 11.5284C460.465 11.5284 461.612 11.9725 462.5 12.8608C463.388 13.7491 463.833 15.045 463.833 16.7486V27H460.223V17.3054C460.223 16.3575 459.971 15.6648 459.468 15.2273C458.964 14.7831 458.347 14.5611 457.618 14.5611C456.75 14.5611 456.07 14.8329 455.58 15.3764C455.096 15.9134 454.854 16.6127 454.854 17.4744V27H451.324V17.1562C451.324 16.3674 451.085 15.7377 450.608 15.267C450.137 14.7964 449.521 14.5611 448.759 14.5611C448.242 14.5611 447.771 14.6937 447.347 14.9588C446.923 15.2173 446.584 15.5852 446.333 16.0625C446.081 16.5331 445.955 17.0833 445.955 17.7131V27H442.355Z" fill="black"/>
</svg>
