<svg width="538" height="365" viewBox="0 0 538 365" fill="none" xmlns="http://www.w3.org/2000/svg">
<path d="M99.7361 276.586H10.8292C4.85236 276.586 0 271.722 0 265.757V184.074C0 178.097 4.86458 173.244 10.8292 173.244H99.7483C105.725 173.244 110.578 178.109 110.578 184.074V265.757C110.578 271.734 105.713 276.586 99.7361 276.586ZM10.8292 175.347C6.0135 175.347 2.10228 179.258 2.10228 184.074V265.757C2.10228 270.573 6.0135 274.484 10.8292 274.484H99.7483C104.564 274.484 108.475 270.573 108.475 265.757V184.074C108.475 179.258 104.564 175.347 99.7483 175.347H10.8292Z" fill="#D1CFD0"/>
<path d="M76.0856 253.473H36.4967C30.911 253.473 26.3887 248.951 26.3887 243.365V206.477C26.3887 200.892 30.911 196.369 36.4967 196.369H76.0856C81.6713 196.369 86.1937 200.892 86.1937 206.477V243.365C86.1937 248.939 81.6713 253.473 76.0856 253.473Z" fill="#3F8CFC"/>
<path d="M41.2139 228.31V225.264H43.4984V226.025L41.2139 228.31Z" fill="white" stroke="white" stroke-width="0.380757"/>
<path d="M70.9121 221.456V224.502H68.6276V223.74L70.9121 221.456Z" fill="white" stroke="white" stroke-width="0.380757"/>
<circle cx="56.0631" cy="224.502" r="4.94984" fill="white"/>
<path d="M42.3555 224.121V218.029C42.3555 216.978 43.2078 216.125 44.2593 216.125L69.0085 216.125" stroke="white" stroke-width="2.6653" stroke-linecap="square" stroke-linejoin="round"/>
<path d="M68.2471 212.508L71.6739 215.935L68.2471 219.362" stroke="white" stroke-width="2.28454" stroke-linecap="round" stroke-linejoin="round"/>
<path d="M69.7705 225.263V231.356C69.7705 232.407 68.9182 233.259 67.8667 233.259L43.1175 233.259" stroke="white" stroke-width="2.6653" stroke-linecap="square" stroke-linejoin="round"/>
<path d="M43.8789 236.877L40.4521 233.45L43.8789 230.023" stroke="white" stroke-width="2.28454" stroke-linecap="round" stroke-linejoin="round"/>
<circle cx="44.4503" cy="218.219" r="3.23643" fill="white"/>
<circle cx="67.6759" cy="231.165" r="3.23643" fill="white"/>
<path d="M205.595 50.6888H173.45C167.864 50.6888 163.342 46.1664 163.342 40.5807V10.3543C163.342 4.76859 167.864 0.246246 173.45 0.246246H205.595C211.181 0.246246 215.703 4.76859 215.703 10.3543V40.5685C215.703 46.1542 211.181 50.6888 205.595 50.6888Z" fill="#54D6E5"/>
<g clip-path="url(#clip0_3829_108717)">
<path d="M201.766 15.5933H176.636C175.865 15.5933 175.24 16.2185 175.24 16.9894V33.7427C175.24 34.5136 175.865 35.1388 176.636 35.1388H201.766C202.537 35.1388 203.162 34.5136 203.162 33.7427V16.9894C203.162 16.2185 202.537 15.5933 201.766 15.5933ZM201.068 33.0446H177.334V17.6874H201.068V33.0446ZM188.154 28.1582H191.645C191.837 28.1582 191.994 28.0021 191.994 27.8092V26.4131C191.994 26.2203 191.837 26.0641 191.645 26.0641H188.154C187.961 26.0641 187.805 26.2203 187.805 26.4131V27.8092C187.805 28.0021 187.961 28.1582 188.154 28.1582ZM198.625 26.0641H195.135C194.942 26.0641 194.786 26.2203 194.786 26.4131V27.8092C194.786 28.0021 194.942 28.1582 195.135 28.1582H198.625C198.818 28.1582 198.974 28.0021 198.974 27.8092V26.4131C198.974 26.2203 198.818 26.0641 198.625 26.0641ZM188.154 24.668H198.625C198.818 24.668 198.974 24.5118 198.974 24.3189V22.9228C198.974 22.73 198.818 22.5738 198.625 22.5738H188.154C187.961 22.5738 187.805 22.73 187.805 22.9228V24.3189C187.805 24.5118 187.961 24.668 188.154 24.668ZM181.118 25.4411L182.959 25.9402C183.141 25.9899 183.268 26.1387 183.268 26.3023C183.268 26.5117 183.072 26.6819 182.829 26.6819H181.68C181.499 26.6819 181.321 26.6365 181.166 26.5532C181.032 26.4803 180.868 26.4934 180.763 26.6046L180.237 27.16C180.101 27.3031 180.123 27.537 180.286 27.6482C180.648 27.8947 181.074 28.0356 181.523 28.0636V28.5073C181.523 28.7001 181.679 28.8563 181.872 28.8563H182.57C182.763 28.8563 182.919 28.7001 182.919 28.5073V28.0601C183.887 28.0121 184.664 27.2499 184.664 26.3019C184.664 25.5091 184.113 24.8063 183.324 24.5929L181.483 24.0938C181.3 24.0441 181.174 23.8953 181.174 23.7317C181.174 23.5223 181.37 23.3521 181.613 23.3521H182.762C182.943 23.3521 183.121 23.3975 183.275 23.4808C183.41 23.5533 183.574 23.5406 183.678 23.4294L184.205 22.874C184.341 22.7309 184.318 22.497 184.156 22.3858C183.794 22.1393 183.368 21.9983 182.919 21.9704V21.5267C182.919 21.3339 182.763 21.1777 182.57 21.1777H181.872C181.679 21.1777 181.523 21.3339 181.523 21.5267V21.9739C180.555 22.0219 179.778 22.7841 179.778 23.7321C179.778 24.5249 180.328 25.2277 181.118 25.4411Z" fill="white"/>
</g>
<path d="M414.87 24.4836H331.879C330.241 24.4836 328.921 25.8036 328.921 27.4414V46.9242C328.921 48.562 330.241 49.882 331.879 49.882H339.396L338.173 56.4578L345.495 49.882H414.87C416.508 49.882 417.828 48.562 417.828 46.9242V27.4414C417.816 25.8036 416.496 24.4836 414.87 24.4836Z" fill="#F5AB9D"/>
<path d="M402.147 33.8462H340.57C339.983 33.8462 339.519 33.3695 339.519 32.795C339.519 32.2206 339.995 31.7439 340.57 31.7439H402.147C402.734 31.7439 403.198 32.2206 403.198 32.795C403.198 33.3695 402.721 33.8462 402.147 33.8462Z" fill="white"/>
<path d="M375.306 41.5218H340.57C339.983 41.5218 339.519 41.0451 339.519 40.4707C339.519 39.8962 339.995 39.4195 340.57 39.4195H375.306C375.893 39.4195 376.357 39.8962 376.357 40.4707C376.357 41.0451 375.893 41.5218 375.306 41.5218Z" fill="white"/>
<path d="M441.296 180.957L428.719 204.388C427.973 205.769 428.511 207.492 429.916 208.213L438.423 212.54C439.768 213.225 441.418 212.723 442.151 211.391L455.095 187.826C455.877 186.408 455.303 184.636 453.836 183.952L444.962 179.747C443.618 179.111 442.005 179.637 441.296 180.957Z" fill="#0074FF"/>
<path d="M439.707 213.909C439.12 213.909 438.509 213.774 437.947 213.481L429.44 209.154C428.511 208.678 427.827 207.871 427.509 206.869C427.191 205.866 427.301 204.815 427.79 203.899L440.367 180.468C441.345 178.659 443.557 177.926 445.415 178.806L454.288 183.01C455.242 183.462 455.987 184.306 456.305 185.308C456.623 186.31 456.525 187.423 456.012 188.351L443.068 211.917C442.371 213.188 441.064 213.909 439.707 213.909ZM443.765 180.529C443.141 180.529 442.543 180.859 442.225 181.446L429.648 204.876C429.428 205.292 429.379 205.769 429.525 206.221C429.672 206.673 429.978 207.04 430.405 207.26L438.912 211.587C439.756 212.014 440.782 211.697 441.235 210.865L454.178 187.3C454.411 186.873 454.459 186.384 454.313 185.919C454.166 185.455 453.836 185.088 453.396 184.88L444.523 180.676C444.278 180.59 444.021 180.529 443.765 180.529Z" fill="black"/>
<path d="M428.059 102.5H61.5283V104.615H428.059V102.5Z" fill="#D1CFD0"/>
<path d="M86.2053 93.7366C88.0144 93.7366 89.481 92.27 89.481 90.461C89.481 88.6519 88.0144 87.1853 86.2053 87.1853C84.3962 87.1853 82.9297 88.6519 82.9297 90.461C82.9297 92.27 84.3962 93.7366 86.2053 93.7366Z" fill="#D62800"/>
<path d="M101.032 93.7366C102.841 93.7366 104.307 92.27 104.307 90.461C104.307 88.6519 102.841 87.1853 101.032 87.1853C99.2224 87.1853 97.7559 88.6519 97.7559 90.461C97.7559 92.27 99.2224 93.7366 101.032 93.7366Z" fill="#F97F23"/>
<path d="M115.32 93.7366C117.129 93.7366 118.595 92.27 118.595 90.461C118.595 88.6519 117.129 87.1853 115.32 87.1853C113.511 87.1853 112.044 88.6519 112.044 90.461C112.044 92.27 113.511 93.7366 115.32 93.7366Z" fill="#0F6D66"/>
<path d="M464.677 333.018H74.4719C66.7472 333.018 60.4648 326.735 60.4648 319.011V274.484H99.7359C104.552 274.484 108.463 270.573 108.463 265.757V184.074C108.463 179.258 104.552 175.347 99.7359 175.347H60.4648V88.6888C60.4648 80.9641 66.7472 74.6817 74.4719 74.6817H464.677C472.402 74.6817 478.684 80.9641 478.684 88.6888V95.1545H438.167C433.363 95.1545 429.44 99.0657 429.44 103.881V185.565C429.44 190.381 433.351 194.292 438.167 194.292H478.684V319.011C478.684 326.735 472.402 333.018 464.677 333.018ZM62.5793 276.586V319.011C62.5793 325.574 67.9206 330.903 74.4719 330.903H464.677C471.241 330.903 476.57 325.562 476.57 319.011V196.394H438.167C432.19 196.394 427.337 191.529 427.337 185.565V103.881C427.337 97.9046 432.202 93.0522 438.167 93.0522H476.57V88.6888C476.57 82.1252 471.229 76.7962 464.677 76.7962H74.4719C67.9084 76.7962 62.5793 82.1375 62.5793 88.6888V173.244H99.7482C105.725 173.244 110.577 178.109 110.577 184.074V265.757C110.577 271.734 105.713 276.586 99.7482 276.586H62.5793Z" fill="#D1CFD0"/>
<path d="M214.286 331.49C214.286 331.49 217.525 264.73 209.592 243.928C201.66 223.137 150.949 242.791 150.949 242.791C150.949 242.791 139.985 282.563 145.326 331.49H174.318L179.403 278.847H182.128L186.651 331.49H214.286Z" fill="#252525"/>
<path d="M146.683 219.409C146.683 219.409 145.216 225.496 143.444 232.781C141.403 241.19 138.946 251.2 137.846 255.27C135.792 262.873 131.881 292.072 131.881 292.072C136.611 298.245 136.611 304.001 136.061 305.651C135.499 307.302 133.727 304.833 133.727 303.183C133.727 301.532 131.673 298.049 130.512 299.675C129.351 301.325 129.412 306.25 132.089 308.939C134.766 311.604 134.973 315.1 134.973 315.1C116.884 308.939 125.562 292.28 125.562 292.28C121.492 283.859 127.774 240.261 129.217 231.216C129.84 227.268 130.549 221.487 131.136 216.231C131.918 209.399 132.505 203.422 132.505 203.422L146.683 219.409Z" fill="#F4A79C"/>
<path d="M146.683 219.409C146.683 219.409 145.217 225.496 143.444 232.781L131.124 216.231C131.906 209.399 132.493 203.422 132.493 203.422L146.683 219.409Z" fill="#E58177"/>
<path d="M174.159 85.6698C152.929 89.2754 152.978 105.544 153.332 111.191C153.687 116.837 113.621 142.566 160.165 158.137H191.845C191.845 158.137 225.103 152.711 210.228 121.91C207.075 117.4 199.546 107.548 198.507 104.138C197.468 100.728 191.662 82.6997 174.159 85.6698Z" fill="#092547"/>
<path d="M212.979 171.582L208.285 244.404L150.937 242.779L130.806 204.999C130.806 204.999 129.266 179.49 133.263 173.403C135.231 170.384 143.359 166.058 151.071 162.452C158.955 158.761 166.423 155.815 166.423 155.815L165.922 139.767C160.116 136.907 158.93 128.045 158.93 128.045C150.754 126.383 149.556 120.125 151.939 117.106C153.491 115.138 157.61 118.683 158.014 119.001C157.989 118.964 157.965 118.94 157.916 118.891C156.877 117.852 156.963 115.627 157.757 113.892C161.253 110.005 162.279 100.41 162.279 100.41C167.902 107.218 191.223 107.939 191.223 107.939C191.223 111.594 195.5 114.674 195.5 114.674C195.5 114.674 195.207 117.253 194.987 118.61C195.329 117.95 196.038 117.253 196.38 116.74C196.857 116.018 203.433 114.356 201.135 121.25C198.837 128.143 193.924 127.52 193.924 127.52C192.017 134.658 185.991 139.18 185.991 139.18L185.747 154.336C192.628 156.891 198.018 159.763 202.125 162.44C209.764 167.378 212.979 171.582 212.979 171.582Z" fill="#F4A79C"/>
<path d="M212.979 171.582L208.285 244.404L150.937 242.779L130.806 204.999C130.806 204.999 129.266 179.49 133.263 173.403C135.231 170.384 143.359 166.058 151.071 162.452C151.071 162.452 173.206 177.608 202.137 162.452C209.764 167.378 212.979 171.582 212.979 171.582Z" fill="#C537E2"/>
<path d="M176.127 141.906C172.863 141.857 169.319 141.344 166.349 139.84C166.544 139.938 166.239 139.657 166.349 139.84C166.85 140.745 168.292 142.248 168.977 143.03C174.257 149.068 183.069 146.391 185.636 139.278C185.502 139.632 183.815 140.158 183.448 140.317C182.605 140.684 181.749 141.001 180.869 141.27C179.305 141.735 177.716 141.942 176.127 141.906Z" fill="#E58177"/>
<path d="M162.046 114.051C161.9 114.051 161.765 114.014 161.631 113.928C161.264 113.696 161.142 113.22 161.374 112.853C161.484 112.67 164.149 108.465 171.837 109.382C172.264 109.431 172.582 109.822 172.533 110.262C172.484 110.689 172.093 111.007 171.653 110.958C165.029 110.164 162.816 113.537 162.731 113.684C162.572 113.916 162.315 114.051 162.046 114.051Z" fill="#092547"/>
<path d="M188.936 113.232C188.704 113.232 188.46 113.122 188.313 112.926C185.869 109.748 179.537 110.812 179.476 110.824C179.048 110.897 178.633 110.616 178.559 110.176C178.486 109.748 178.767 109.333 179.195 109.259C179.488 109.211 186.529 108.013 189.56 111.948C189.829 112.291 189.768 112.792 189.413 113.061C189.279 113.171 189.108 113.232 188.936 113.232Z" fill="#092547"/>
<path d="M176.213 125.087C175.394 125.087 174.673 124.831 174.209 124.317C173.573 123.621 173.549 122.594 174.135 121.482C175.296 119.294 174.575 115.933 174.563 115.908C174.502 115.627 174.673 115.346 174.966 115.285C175.248 115.224 175.529 115.395 175.59 115.688C175.626 115.835 176.409 119.453 175.064 121.995C174.808 122.484 174.575 123.168 174.991 123.621C175.406 124.061 176.445 124.244 177.643 123.731C177.912 123.609 178.218 123.743 178.34 124.012C178.45 124.281 178.328 124.586 178.059 124.709C177.423 124.953 176.788 125.087 176.213 125.087Z" fill="#E58177"/>
<path d="M168.537 127.117C170.896 127.679 176.75 128.705 182.666 126.848C182.703 126.835 182.727 126.86 182.715 126.897C182.397 127.508 180.796 132.36 175.846 132.36C172.057 132.36 169.062 129.243 168.06 127.825C167.816 127.483 168.133 127.019 168.537 127.117Z" fill="white"/>
<path d="M195.817 123.022C195.756 123.022 195.683 123.01 195.622 122.985C195.353 122.875 195.219 122.57 195.329 122.301C195.5 121.873 197.101 118.121 199.496 118.047C199.765 118.047 200.034 118.267 200.034 118.561C200.046 118.854 199.814 119.098 199.521 119.098C198.066 119.147 196.697 121.702 196.294 122.692C196.221 122.9 196.025 123.022 195.817 123.022Z" fill="#E58177"/>
<path d="M157.671 123.022C157.476 123.022 157.28 122.912 157.195 122.716C156.033 120.199 153.516 120.663 153.406 120.687C153.124 120.749 152.843 120.565 152.782 120.272C152.721 119.991 152.904 119.71 153.198 119.649C154.383 119.404 156.95 119.636 158.16 122.264C158.282 122.533 158.172 122.839 157.904 122.961C157.818 123.01 157.745 123.022 157.671 123.022Z" fill="#E58177"/>
<path d="M167.926 119.098C168.966 119.098 169.808 118.256 169.808 117.216C169.808 116.177 168.966 115.334 167.926 115.334C166.887 115.334 166.044 116.177 166.044 117.216C166.044 118.256 166.887 119.098 167.926 119.098Z" fill="#092547"/>
<path d="M183.754 119.098C184.794 119.098 185.637 118.256 185.637 117.216C185.637 116.177 184.794 115.334 183.754 115.334C182.715 115.334 181.872 116.177 181.872 117.216C181.872 118.256 182.715 119.098 183.754 119.098Z" fill="#092547"/>
<path d="M384.057 239.32L385.402 242.082C385.402 242.082 390.01 256.04 391.171 270.829C392.32 285.631 392.136 331.954 392.136 331.954H362.924L359.465 282.355H355.432L351.007 331.954H337.941L345.727 242.082H385.402" fill="#886D69"/>
<path d="M438.729 213.835C438.729 213.835 435.318 217.832 429.696 217.221C429.696 217.221 419.038 239.038 415.97 244.05C412.915 249.073 407.769 256.174 402.623 255.319C397.477 254.451 395.021 247.338 392.943 239.32C390.853 231.302 386.819 211.697 386.819 211.697C386.819 211.697 387.064 203.972 390.743 203.361C394.41 202.75 405.691 203.727 405.691 203.727L408.197 218.003L409.37 224.665C409.37 224.665 422.485 211.44 422.485 209.716C422.485 207.993 422.729 191.212 438.9 197.347C438.9 197.347 440.489 199.425 437.922 200.036C435.343 200.647 432.666 196.761 429.843 201.65C428.364 204.229 427.74 205.854 427.435 206.612C427.288 206.979 428.119 207.785 428.559 208.042L438.729 213.835Z" fill="#B7824E"/>
<path d="M409.359 224.677C409.359 224.677 401.866 236.411 401.866 233.954C401.866 232.255 405.753 223.394 408.185 218.016L409.359 224.677Z" fill="#A06B3C"/>
<path d="M376.675 99.9457C384.323 99.9457 390.523 93.7457 390.523 86.0976C390.523 78.4495 384.323 72.2494 376.675 72.2494C369.027 72.2494 362.827 78.4495 362.827 86.0976C362.827 93.7457 369.027 99.9457 376.675 99.9457Z" fill="#242B29"/>
<path d="M359.026 135C371.433 135 381.491 124.554 381.491 111.667C381.491 98.7808 371.433 88.3344 359.026 88.3344C346.619 88.3344 336.561 98.7808 336.561 111.667C336.561 124.554 346.619 135 359.026 135Z" fill="#242B29"/>
<path d="M410.104 205.304L390.181 208.018C390.181 208.018 388.519 217.918 387.957 221.242C387.407 224.579 384.974 239.857 385.414 242.082H345.74L319.926 175.811C319.926 175.811 330.254 162.574 346.045 156.768C346.192 156.707 346.339 156.658 346.485 156.597C346.485 156.597 349.761 156.194 349.957 153.847C350.164 151.5 349.651 141.49 349.651 141.49C349.651 141.49 343.112 136.894 341.584 130.05C341.584 130.05 336.072 130.551 334.226 123.816C332.405 117.082 338.7 118.622 340.117 121.396C340.069 121.042 339.653 118.206 340.655 116.984C341.731 115.688 345.471 110.408 345.471 109.1C345.471 109.1 364.343 108.416 371.456 103.148C371.371 103.392 369.806 107.267 368.266 107.731C368.266 107.731 371.016 108.037 372.849 104.676C372.849 104.676 373.082 110.176 374.842 112.278C376.59 114.393 378.509 117.974 376.981 121.421C376.981 121.421 378.582 122.032 379.499 118.744C379.499 118.744 382.786 116.984 383.703 120.418C384.62 123.865 380.415 129.219 376.198 130.135C376.198 130.135 374.671 138.63 368.62 142.065C368.62 142.065 367.704 153.92 369.232 154.923C369.574 155.143 371.041 155.803 373.204 156.878C380.709 160.582 396.549 169.235 402.624 181.653C410.458 197.653 410.104 205.304 410.104 205.304Z" fill="#B7824E"/>
<path d="M410.104 205.304L390.181 208.018C390.181 208.018 388.519 217.918 387.957 221.243C387.407 224.579 384.974 239.858 385.414 242.082H345.74L319.926 175.811C319.926 175.811 330.254 162.574 346.045 156.769C347.488 158.321 350.03 160.814 352.059 161.609C355.102 162.819 358.182 164.176 359.124 168.087C359.124 168.087 360.052 162.965 365.015 161.768C368.804 160.851 371.811 158.614 373.216 156.879C380.721 160.582 396.561 169.236 402.636 181.654C410.458 197.653 410.104 205.304 410.104 205.304Z" fill="#5AD3E5"/>
<path d="M359.026 144.35C355.762 144.179 352.548 143.079 349.639 141.478C349.822 141.576 350.054 142.432 350.152 142.615C350.616 143.544 351.191 144.424 351.839 145.218C356.899 151.44 365.797 149.068 368.62 142.053C368.474 142.407 366.775 142.872 366.396 143.018C365.54 143.348 364.672 143.654 363.78 143.874C362.216 144.289 360.615 144.436 359.026 144.35Z" fill="#A06B3C"/>
<path d="M359.613 128.082C359.038 128.082 358.451 128.058 357.938 127.984C357.645 127.948 357.388 127.776 357.217 127.508C356.361 126.224 357.388 121.995 357.608 121.152C357.681 120.871 357.975 120.7 358.256 120.773C358.537 120.846 358.708 121.127 358.635 121.421C357.975 123.987 357.73 126.615 358.121 126.945C359.454 127.129 361.629 126.933 361.654 126.933C361.923 126.909 362.204 127.116 362.228 127.41C362.253 127.703 362.045 127.96 361.752 127.984C361.678 127.996 360.7 128.082 359.613 128.082Z" fill="#844618"/>
<path d="M352.804 129.928H365.417C365.417 129.928 362.948 134.743 358.903 134.438C354.857 134.132 352.804 129.928 352.804 129.928Z" fill="white"/>
<path d="M344.836 115.041C344.64 115.041 344.457 114.992 344.274 114.882C343.785 114.576 343.626 113.928 343.931 113.44C343.968 113.378 347.488 107.842 354.919 111.728C355.433 111.997 355.628 112.633 355.359 113.146C355.091 113.66 354.455 113.867 353.942 113.586C348.295 110.628 345.826 114.381 345.716 114.54C345.532 114.87 345.19 115.041 344.836 115.041Z" fill="#242B29"/>
<path d="M372.739 114.332C372.422 114.332 372.104 114.185 371.896 113.904C369.329 110.482 363.633 112.376 363.572 112.388C363.022 112.572 362.423 112.278 362.24 111.728C362.057 111.178 362.35 110.579 362.9 110.384C363.193 110.286 370.099 107.976 373.595 112.621C373.949 113.085 373.852 113.745 373.387 114.1C373.179 114.258 372.959 114.332 372.739 114.332Z" fill="#242B29"/>
<path d="M350.25 121.286C351.236 121.286 352.035 120.487 352.035 119.502C352.035 118.516 351.236 117.717 350.25 117.717C349.265 117.717 348.466 118.516 348.466 119.502C348.466 120.487 349.265 121.286 350.25 121.286Z" fill="#242B29"/>
<path d="M366.799 121.286C367.785 121.286 368.584 120.487 368.584 119.502C368.584 118.516 367.785 117.717 366.799 117.717C365.814 117.717 365.015 118.516 365.015 119.502C365.015 120.487 365.814 121.286 366.799 121.286Z" fill="#242B29"/>
<path d="M339.726 126.371C339.494 126.371 339.274 126.212 339.213 125.98C338.418 122.9 336.353 123.193 336.328 123.205C336.035 123.254 335.766 123.059 335.729 122.765C335.68 122.472 335.876 122.203 336.169 122.166C336.206 122.154 339.213 121.726 340.239 125.723C340.313 126.004 340.142 126.298 339.86 126.371C339.812 126.359 339.775 126.371 339.726 126.371Z" fill="#844618"/>
<path d="M377.225 126.371C377.139 126.371 377.054 126.347 376.968 126.31C376.711 126.163 376.626 125.845 376.76 125.589C377.029 125.112 379.4 120.981 381.759 121.665C382.041 121.751 382.199 122.032 382.126 122.313C382.053 122.594 381.759 122.753 381.478 122.68C380.305 122.338 378.533 124.599 377.689 126.114C377.591 126.273 377.42 126.371 377.225 126.371Z" fill="#844618"/>
<path d="M349.198 128.547C344.798 128.547 341.217 124.965 341.217 120.565C341.217 116.165 344.798 112.584 349.198 112.584C353.598 112.584 357.179 116.165 357.179 120.565C357.179 124.965 353.598 128.547 349.198 128.547ZM349.198 113.635C345.372 113.635 342.268 116.74 342.268 120.565C342.268 124.391 345.372 127.495 349.198 127.495C353.024 127.495 356.128 124.391 356.128 120.565C356.128 116.74 353.024 113.635 349.198 113.635Z" fill="white"/>
<path d="M367.985 128.143C363.585 128.143 360.004 124.562 360.004 120.162C360.004 115.762 363.585 112.18 367.985 112.18C372.385 112.18 375.967 115.762 375.967 120.162C375.967 124.562 372.385 128.143 367.985 128.143ZM367.985 113.219C364.16 113.219 361.055 116.324 361.055 120.15C361.055 123.975 364.16 127.08 367.985 127.08C371.811 127.08 374.915 123.975 374.915 120.15C374.915 116.336 371.811 113.219 367.985 113.219Z" fill="white"/>
<path d="M360.517 120.04H356.654V121.091H360.517V120.04Z" fill="white"/>
<path d="M316.027 307.937H221.485V331.954H316.027V307.937Z" fill="#022E42"/>
<path d="M252.849 70.0492C252.849 70.0492 259.767 56.58 273.615 61.4445C287.463 66.3091 294.76 71.7359 292.328 87.0752C289.895 102.415 288.771 105.409 288.771 105.409L241.433 104.101C241.433 104.101 240.871 93.9932 239.942 91.3776C239.013 88.762 232.633 67.8125 252.849 70.0492Z" fill="#242B29"/>
<path d="M104.661 155.889C105.224 155.473 106.03 155.583 106.458 156.145L114.134 166.082C114.464 166.498 115.063 166.583 115.478 166.253C115.833 165.972 115.943 165.495 115.747 165.092L109.489 152.038C109.123 151.207 109.44 150.229 110.235 149.789C111.066 149.325 112.105 149.606 112.594 150.413L119.817 162.354C120.123 162.868 120.783 163.063 121.321 162.806L121.394 162.77C121.932 162.513 122.188 161.914 122.017 161.352L117.018 145.536C116.762 144.717 117.153 143.837 117.947 143.495C118.778 143.128 119.756 143.495 120.147 144.326L126.955 159.005C127.261 159.653 128.055 159.885 128.654 159.494C129.021 159.25 129.229 158.834 129.18 158.394L127.713 144.583C127.615 143.654 128.349 142.847 129.278 142.847C130.011 142.847 130.646 143.348 130.805 144.057C131.832 148.506 135.377 163.809 136.061 166.852C136.868 170.421 139.031 158.431 143.272 157.294C149.359 155.669 141.366 170.641 141.133 172.487C140.901 174.332 138.713 182.521 137.1 185.638L172.973 227.281L183.24 214.019L212.978 236.399C212.978 236.399 190.598 265.415 180.93 268.251C171.262 271.098 165.004 266.539 158.367 255.735C151.73 244.93 123.472 192.593 123.472 192.593C123.472 192.593 110.956 181.593 110.198 168.698L104.282 157.551C103.977 156.976 104.136 156.267 104.661 155.889Z" fill="#F4A99D"/>
<path d="M125.563 181.36C125.281 181.36 125.049 181.14 125.037 180.847C125.037 180.725 124.719 168.881 135.988 167.268C136.27 167.219 136.538 167.427 136.587 167.72C136.624 168.013 136.428 168.27 136.135 168.319C125.819 169.798 126.076 180.358 126.088 180.81C126.1 181.104 125.868 181.348 125.575 181.36C125.575 181.348 125.563 181.36 125.563 181.36Z" fill="#C45853"/>
<path d="M353.208 235.971L322.761 241.605L320.5 310.858L219.212 311.763L217.635 235.066L213.137 240.029C213.137 240.029 183.583 222.208 179.745 211.599C179.745 211.599 195.769 167.39 240.198 155.876C240.198 155.876 249.67 154.532 249.67 150.462C249.67 149.814 249.683 148.787 249.707 147.504C249.817 140.769 250.135 127.227 250.135 127.227C250.135 127.227 245.099 119.881 244.635 115.493C244.635 115.493 239.782 118.964 236.079 114.099C232.363 109.235 233.268 100.826 241.445 104.101C241.445 104.101 243.254 105.421 243.131 102.415C243.021 99.408 239.917 82.2475 250.477 75.7328C250.477 75.7328 258.287 87.0754 274.177 85.8165C290.066 84.5453 289.296 96.5357 288.172 101.327C287.035 106.118 289.369 103.173 289.369 103.173C289.369 103.173 293.953 100.887 296.348 104.065C298.756 107.243 297.998 118.206 286.9 115.811C286.9 115.811 285.641 124.513 282.244 128.033C282.244 128.033 282.207 128.693 282.158 129.818C282.072 131.724 281.95 134.951 281.877 138.349C281.767 144.301 281.828 150.755 282.622 151.611C283.124 152.148 287.255 153.725 293.024 156.267C304.758 161.45 323.238 170.617 331.549 183.169C343.955 201.906 351.179 219.947 353.208 235.971Z" fill="#F4A79C"/>
<path d="M282.243 128.046C282.243 128.046 282.207 128.706 282.158 129.83C282.158 129.83 265.755 158.345 252.457 129.854C252.958 130.466 265.645 145.866 282.243 128.046Z" fill="#C9827B"/>
<path d="M353.208 235.971L322.761 241.605L320.5 310.858L219.212 311.763L217.635 235.066L213.137 240.028C213.137 240.028 183.583 222.208 179.745 211.599C179.745 211.599 195.769 167.39 240.198 155.876L262.614 171.717C264.949 173.367 268.041 173.379 270.388 171.778L293.036 156.267C304.77 161.45 323.25 170.617 331.562 183.169C343.955 201.906 351.179 219.947 353.208 235.971Z" fill="#185FED"/>
<path d="M318.031 242.082L319.926 331.955H341.547L346.925 237.132L318.031 242.082Z" fill="#F4A89C"/>
<path d="M246.688 95.9734C246.529 95.9734 246.37 95.9367 246.223 95.8634C245.698 95.6067 245.49 94.9711 245.746 94.4578C245.783 94.3722 250.061 85.9753 260.524 89.6421C261.074 89.8377 261.367 90.4366 261.171 90.9866C260.976 91.5366 260.377 91.8177 259.827 91.6344C251.161 88.591 247.775 95.1178 247.641 95.3867C247.445 95.7656 247.079 95.9734 246.688 95.9734Z" fill="#242B29"/>
<path d="M282.977 95.9735C282.598 95.9735 282.231 95.7657 282.048 95.4112C278.858 89.3611 270.803 91.9033 270.461 92.0134C269.911 92.1967 269.312 91.8911 269.128 91.3411C268.945 90.7911 269.251 90.1922 269.801 90.0089C273.272 88.8722 280.691 88.3221 283.918 94.4212C284.187 94.9345 283.991 95.5701 283.478 95.8512C283.307 95.9368 283.136 95.9735 282.977 95.9735Z" fill="#242B29"/>
<path d="M266.182 119.587C261.293 119.587 257.712 116.141 257.663 116.092C257.455 115.884 257.455 115.554 257.651 115.346C257.859 115.138 258.189 115.138 258.397 115.334C258.702 115.627 265.828 122.447 273.54 115.322C273.748 115.126 274.09 115.138 274.286 115.346C274.482 115.566 274.469 115.896 274.261 116.092C271.426 118.707 268.639 119.587 266.182 119.587Z" fill="#C45853"/>
<path d="M266.135 113.916C265.499 113.916 264.986 113.733 264.582 113.354C262.346 111.288 265.157 104.15 265.487 103.344C265.597 103.075 265.902 102.94 266.171 103.05C266.44 103.16 266.575 103.466 266.465 103.735C265.328 106.521 264.02 111.386 265.304 112.572C265.964 113.183 267.394 112.682 268.469 112.144C268.726 112.009 269.044 112.119 269.178 112.376C269.313 112.633 269.203 112.95 268.946 113.085C267.834 113.647 266.905 113.916 266.135 113.916Z" fill="#C45853"/>
<path d="M287.927 111.716C287.854 111.716 287.769 111.704 287.695 111.655C287.439 111.521 287.329 111.203 287.463 110.946C288.563 108.746 291.631 105.006 295.383 106.558C295.652 106.668 295.774 106.974 295.664 107.243C295.554 107.512 295.249 107.634 294.98 107.524C291.203 105.959 288.429 111.362 288.404 111.411C288.306 111.606 288.123 111.716 287.927 111.716Z" fill="#C45853"/>
<path d="M244.158 112.963C243.901 112.963 243.681 112.78 243.632 112.523C242.997 108.624 237.142 107.243 237.081 107.23C236.8 107.169 236.617 106.888 236.69 106.595C236.751 106.314 237.032 106.13 237.326 106.192C237.594 106.253 243.938 107.744 244.684 112.34C244.732 112.633 244.537 112.902 244.244 112.951C244.219 112.963 244.182 112.963 244.158 112.963Z" fill="#C45853"/>
<path d="M255.806 104.126C257.055 104.126 258.067 103.114 258.067 101.865C258.067 100.616 257.055 99.6036 255.806 99.6036C254.557 99.6036 253.545 100.616 253.545 101.865C253.545 103.114 254.557 104.126 255.806 104.126Z" fill="#242B29"/>
<path d="M275.02 104.126C276.269 104.126 277.281 103.114 277.281 101.865C277.281 100.616 276.269 99.6036 275.02 99.6036C273.771 99.6036 272.759 100.616 272.759 101.865C272.759 103.114 273.771 104.126 275.02 104.126Z" fill="#242B29"/>
<path d="M253.546 113.647C247.764 113.647 243.059 108.942 243.059 103.16C243.059 97.379 247.764 92.6733 253.546 92.6733C259.327 92.6733 264.033 97.379 264.033 103.16C264.033 108.929 259.327 113.647 253.546 113.647ZM253.546 94.2378C248.632 94.2378 244.635 98.2346 244.635 103.148C244.635 108.062 248.632 112.058 253.546 112.058C258.459 112.058 262.456 108.062 262.456 103.148C262.456 98.2346 258.459 94.2378 253.546 94.2378Z" fill="white"/>
<path d="M277.281 113.647C271.5 113.647 266.794 108.942 266.794 103.16C266.794 97.379 271.5 92.6733 277.281 92.6733C283.062 92.6733 287.768 97.379 287.768 103.16C287.78 108.929 283.074 113.647 277.281 113.647ZM277.281 94.2378C272.367 94.2378 268.371 98.2346 268.371 103.148C268.371 108.062 272.367 112.058 277.281 112.058C282.194 112.058 286.191 108.062 286.191 103.148C286.191 98.2346 282.194 94.2378 277.281 94.2378Z" fill="white"/>
<path d="M267.576 102.354H263.237V103.93H267.576V102.354Z" fill="white"/>
<path d="M288.648 223.32C284.468 223.32 280.569 221.658 277.673 218.651C274.776 215.632 273.272 211.672 273.431 207.492L274.006 192.69H303.878V208.091C303.878 216.488 297.045 223.32 288.648 223.32ZM276.035 194.805L275.534 207.578C275.387 211.171 276.695 214.593 279.188 217.184C281.682 219.776 285.043 221.206 288.648 221.206C295.884 221.206 301.775 215.314 301.775 208.079V194.793H276.035V194.805Z" fill="#0B3C89"/>
<path d="M318.855 196.711L316.972 242.04L319.084 242.128L320.967 196.799L318.855 196.711Z" fill="#0B3C89"/>
<path d="M216.047 195.507L213.938 195.648L216.574 235.149L218.684 235.009L216.047 195.507Z" fill="#0B3C89"/>
<path d="M527.085 196.394H438.166C432.189 196.394 427.337 191.53 427.337 185.565V103.881C427.337 97.9047 432.202 93.0523 438.166 93.0523H527.085C533.062 93.0523 537.914 97.9169 537.914 103.881V185.565C537.914 191.542 533.05 196.394 527.085 196.394ZM438.166 95.1546C433.363 95.1546 429.439 99.0658 429.439 103.881V185.565C429.439 190.381 433.35 194.292 438.166 194.292H527.085C531.901 194.292 535.812 190.381 535.812 185.565V103.881C535.812 99.0658 531.901 95.1546 527.085 95.1546H438.166Z" fill="#D1CFD0"/>
<path d="M502.421 169.394H462.832C457.246 169.394 452.724 164.872 452.724 159.286V127.825C452.724 122.24 457.246 117.717 462.832 117.717H502.421C508.006 117.717 512.529 122.24 512.529 127.825V159.286C512.529 164.872 508.006 169.394 502.421 169.394Z" fill="#F97F23"/>
<g clip-path="url(#clip1_3829_108717)">
<path d="M486.386 136.154L489.353 131.807C489.45 131.611 489.497 131.394 489.487 131.175C489.477 130.957 489.412 130.744 489.297 130.558C489.182 130.372 489.022 130.218 488.831 130.111C488.64 130.004 488.425 129.948 488.207 129.947H477.07C476.85 129.947 476.635 130.003 476.444 130.11C476.252 130.216 476.092 130.37 475.976 130.557C475.861 130.743 475.796 130.956 475.786 131.174C475.776 131.393 475.822 131.611 475.92 131.807L478.89 136.154C468.405 142.565 468.935 150.939 468.935 152.007C468.935 154.965 471.565 157.362 474.808 157.362H490.469C493.713 157.362 496.342 154.965 496.342 152.007C496.342 150.958 496.813 142.53 486.386 136.154ZM485.759 132.517L483.712 135.516H481.564L479.518 132.517H485.759ZM493.772 152.007C493.772 153.542 492.29 154.792 490.469 154.792H474.808C472.988 154.792 471.506 153.542 471.506 152.007C471.462 147.67 473.253 142.613 480.657 138.086H484.624C491.99 142.593 493.808 147.667 493.772 152.007ZM484.224 146.585L481.6 145.807C481.297 145.72 481.087 145.42 481.087 145.074C481.087 144.654 481.396 144.314 481.775 144.314H483.413C483.676 144.315 483.935 144.389 484.159 144.528C484.247 144.588 484.353 144.617 484.46 144.61C484.567 144.602 484.668 144.559 484.748 144.488L485.43 143.836C485.478 143.791 485.516 143.735 485.541 143.674C485.565 143.612 485.577 143.546 485.573 143.48C485.57 143.414 485.552 143.349 485.521 143.29C485.49 143.232 485.447 143.18 485.395 143.14C484.862 142.748 484.225 142.522 483.565 142.488V141.546C483.564 141.423 483.514 141.305 483.427 141.219C483.34 141.132 483.222 141.084 483.099 141.084H482.166C482.043 141.084 481.925 141.132 481.838 141.219C481.75 141.305 481.701 141.423 481.7 141.546V142.48C480.319 142.52 479.211 143.668 479.211 145.08C479.211 146.234 479.969 147.26 481.053 147.583L483.676 148.362C483.979 148.448 484.189 148.748 484.189 149.093C484.189 149.515 483.88 149.855 483.501 149.855H481.863C481.599 149.854 481.341 149.779 481.117 149.641C481.028 149.58 480.922 149.552 480.815 149.559C480.709 149.567 480.607 149.61 480.528 149.681L479.84 150.327C479.792 150.373 479.754 150.428 479.729 150.489C479.704 150.551 479.693 150.617 479.697 150.683C479.7 150.75 479.718 150.814 479.748 150.873C479.779 150.932 479.823 150.983 479.875 151.023C480.408 151.415 481.045 151.641 481.705 151.675V152.615C481.706 152.737 481.756 152.855 481.843 152.941C481.93 153.028 482.048 153.076 482.171 153.076H483.104C483.227 153.076 483.345 153.028 483.432 152.941C483.519 152.855 483.569 152.737 483.57 152.615V151.686C484.945 151.652 486.058 150.498 486.064 149.086C486.065 147.935 485.307 146.908 484.224 146.585Z" fill="white"/>
</g>
<path d="M494.939 358.076H462.794C457.208 358.076 452.686 353.554 452.686 347.968V317.742C452.686 312.156 457.208 307.634 462.794 307.634H494.939C500.525 307.634 505.047 312.156 505.047 317.742V347.956C505.047 353.542 500.525 358.076 494.939 358.076Z" fill="#54D6E5"/>
<g clip-path="url(#clip2_3829_108717)">
<path d="M488.096 325.371V324.578C488.096 322.825 486.675 321.405 484.923 321.405H470.644C468.016 321.405 465.885 323.535 465.885 326.164V338.856C465.885 341.485 468.016 343.615 470.644 343.615H488.096C489.848 343.615 491.269 342.195 491.269 340.442V328.544C491.269 326.791 489.848 325.371 488.096 325.371ZM488.889 340.442C488.889 340.88 488.533 341.236 488.096 341.236H470.644C469.332 341.236 468.264 340.168 468.264 338.856V326.164C468.264 324.852 469.332 323.784 470.644 323.784H484.923C485.36 323.784 485.716 324.14 485.716 324.578V326.164H471.437C470.999 326.164 470.644 326.519 470.644 326.957C470.644 327.396 470.999 327.751 471.437 327.751H488.096C488.533 327.751 488.889 328.107 488.889 328.544V340.442ZM484.923 332.51C484.047 332.51 483.336 333.221 483.336 334.097C483.336 334.973 484.047 335.683 484.923 335.683C485.799 335.683 486.509 334.973 486.509 334.097C486.509 333.221 485.799 332.51 484.923 332.51Z" fill="white"/>
</g>
<path d="M60.3677 84.9467H28.2223C22.6366 84.9467 18.1143 80.4244 18.1143 74.8387V44.6123C18.1143 39.0266 22.6366 34.5042 28.2223 34.5042H60.3677C65.9534 34.5042 70.4757 39.0266 70.4757 44.6123V74.8264C70.4757 80.4122 65.9534 84.9467 60.3677 84.9467Z" fill="#F5AB9D"/>
<g clip-path="url(#clip3_3829_108717)">
<path d="M56.5663 62.5533C55.0861 61.2968 53.268 61.787 52.3589 62.4677L49.4842 64.6332H49.3272C49.3176 62.8246 47.8755 61.4063 46.0336 61.4063H39.18C37.8283 61.4063 36.5004 61.8537 35.4438 62.658L34.0969 63.6956H31.0603C30.6415 63.6956 30.2988 64.0383 30.2988 64.4571V65.2186C30.2988 65.6375 30.6415 65.9801 31.0603 65.9801H34.8679L36.8336 64.4809C37.4999 63.9716 38.328 63.6956 39.1847 63.6956H46.0384C47.3663 63.6956 47.4234 65.6089 45.986 65.6089H43.1399C42.7781 65.6089 42.4831 65.904 42.4831 66.2657V66.2705C42.4831 66.6322 42.7781 66.9273 43.1399 66.9273H49.5413C50.003 66.9273 50.4552 66.775 50.8216 66.4989L53.7392 64.3048C54.1342 64.0097 54.7149 63.9859 55.0909 64.3048C55.5716 64.7094 55.5335 65.4042 55.048 65.766L50.26 69.3594C49.8888 69.6354 49.4414 69.7877 48.9797 69.7877H31.0603C30.6415 69.7877 30.2988 70.1304 30.2988 70.5492V71.3107C30.2988 71.7296 30.6415 72.0722 31.0603 72.0722H48.994C49.9411 72.0722 50.8645 71.7629 51.6212 71.1917L56.4188 67.5793C57.2088 66.9844 57.68 66.0801 57.7086 65.1044C57.7419 64.1287 57.3231 63.1958 56.5663 62.5533ZM42.5592 54.5717L44.9437 55.2523C45.115 55.2999 45.234 55.4617 45.234 55.6378C45.234 55.8568 45.0532 56.0376 44.8342 56.0376H43.2731C43.1018 56.0376 42.9352 55.9995 42.7829 55.9329C42.5544 55.8282 42.2879 55.852 42.1118 56.0281L41.2789 56.861C41.0267 57.1133 41.0552 57.5416 41.3503 57.7367C41.8025 58.0366 42.3212 58.2175 42.8638 58.2841V59.1265C42.8638 59.5453 43.2065 59.888 43.6253 59.888H44.3868C44.8057 59.888 45.1484 59.5453 45.1484 59.1265V58.2888C46.5905 58.1175 47.6899 56.8134 47.4948 55.2904C47.3567 54.1957 46.5096 53.3247 45.453 53.0201L43.0685 52.3395C42.8971 52.2919 42.7781 52.1301 42.7781 51.954C42.7781 51.7351 42.959 51.5542 43.1779 51.5542H44.739C44.9104 51.5542 45.077 51.5923 45.2293 51.6589C45.4577 51.7636 45.7242 51.7398 45.9003 51.5637L46.7333 50.7308C46.9855 50.4786 46.9569 50.0502 46.6619 49.8551C46.2097 49.5552 45.6909 49.3744 45.1484 49.3077V48.4653C45.1484 48.0465 44.8057 47.7038 44.3868 47.7038H43.6253C43.2065 47.7038 42.8638 48.0465 42.8638 48.4653V49.303C41.4217 49.4743 40.3223 50.7784 40.5174 52.3014C40.6554 53.3961 41.4978 54.2671 42.5592 54.5717Z" fill="white"/>
</g>
<path d="M128.588 363.732H92.4348C86.5748 363.732 81.8279 358.977 81.8279 353.1V319.028C81.8279 313.151 86.5748 308.395 92.4348 308.395H128.588C134.448 308.395 139.195 313.151 139.195 319.028V353.086C139.195 358.964 134.447 363.732 128.588 363.732Z" fill="white" stroke="#D1CFD0" stroke-width="1.52303"/>
<g clip-path="url(#clip4_3829_108717)">
<path d="M117.818 337.841H104.22C103.971 337.841 103.767 338.041 103.767 338.285V340.062C103.767 340.306 103.971 340.506 104.22 340.506H117.818C118.068 340.506 118.272 340.306 118.272 340.062V338.285C118.272 338.041 118.068 337.841 117.818 337.841ZM121.037 322.166L118.572 323.904L116.385 322.36C115.433 321.688 114.164 321.688 113.206 322.36L111.019 323.904L108.832 322.36C108.369 322.032 107.813 321.856 107.243 321.856C106.672 321.856 106.116 322.032 105.653 322.36L103.466 323.904L101.002 322.166C99.8796 321.377 98.3271 322.16 98.3271 323.509V348.624C98.3271 349.946 99.8626 350.768 101.002 349.968L103.466 348.224L105.653 349.768C106.605 350.44 107.874 350.44 108.832 349.768L111.019 348.224L113.206 349.768C114.158 350.44 115.433 350.44 116.385 349.768L118.572 348.224L121.037 349.962C122.158 350.751 123.711 349.968 123.711 348.624V323.509C123.711 322.182 122.175 321.366 121.037 322.166ZM120.991 346.642L118.572 344.937L114.793 347.602L111.013 344.937L107.234 347.602L103.455 344.937L101.047 346.642V325.486L103.466 327.191L107.245 324.525L111.025 327.191L114.804 324.525L118.583 327.191L120.991 325.486V346.642ZM117.818 331.622H104.22C103.971 331.622 103.767 331.822 103.767 332.066V333.843C103.767 334.087 103.971 334.287 104.22 334.287H117.818C118.068 334.287 118.272 334.087 118.272 333.843V332.066C118.272 331.822 118.068 331.622 117.818 331.622Z" fill="#185FED"/>
</g>
<defs>
<clipPath id="clip0_3829_108717">
<rect width="27.9222" height="22.3377" fill="white" transform="translate(175.24 14.1972)"/>
</clipPath>
<clipPath id="clip1_3829_108717">
<rect width="27.4145" height="27.4145" fill="white" transform="translate(468.931 129.947)"/>
</clipPath>
<clipPath id="clip2_3829_108717">
<rect width="25.3838" height="25.3838" fill="white" transform="translate(465.885 319.818)"/>
</clipPath>
<clipPath id="clip3_3829_108717">
<rect width="27.4145" height="24.3685" fill="white" transform="translate(30.2988 47.7038)"/>
</clipPath>
<clipPath id="clip4_3829_108717">
<rect width="25.3838" height="28.4299" fill="white" transform="translate(98.3271 321.849)"/>
</clipPath>
</defs>
</svg>
